<?xml version="1.0" encoding="UTF-8" standalone="no"?>
<!-- Created with Inkscape (http://www.inkscape.org/) -->

<svg
   width="132.55667mm"
   height="132.55667mm"
   viewBox="0 0 132.55667 132.55667"
   version="1.1"
   id="svg1"
   xmlns:xlink="http://www.w3.org/1999/xlink"
   xmlns="http://www.w3.org/2000/svg"
   xmlns:svg="http://www.w3.org/2000/svg">
  <defs
     id="defs1">
    <linearGradient
       id="linearGradient94">
      <stop
         style="stop-color:#ffffff;stop-opacity:1;"
         offset="0"
         id="stop94" />
      <stop
         style="stop-color:#3fb950;stop-opacity:1;"
         offset="0.11738427"
         id="stop97" />
      <stop
         style="stop-color:#3fb950;stop-opacity:0;"
         offset="1"
         id="stop95" />
    </linearGradient>
    <linearGradient
       id="linearGradient4">
      <stop
         style="stop-color:#3fb950;stop-opacity:1;"
         offset="0"
         id="stop4" />
      <stop
         style="stop-color:#3fb950;stop-opacity:1;"
         offset="1"
         id="stop5" />
    </linearGradient>
    <linearGradient
       id="linearGradient1">
      <stop
         style="stop-color:#007d00;stop-opacity:1;"
         offset="0"
         id="stop1" />
      <stop
         style="stop-color:#000000;stop-opacity:0;"
         offset="1"
         id="stop2" />
    </linearGradient>
    <radialGradient
       xlink:href="#linearGradient1"
       id="radialGradient2"
       cx="-66.145836"
       cy="66.145836"
       fx="-66.145836"
       fy="66.145836"
       r="66.146004"
       gradientUnits="userSpaceOnUse" />
    <linearGradient
       xlink:href="#linearGradient4"
       id="linearGradient6"
       x1="-0.13404177"
       y1="66.224495"
       x2="132.55251"
       y2="66.224495"
       gradientUnits="userSpaceOnUse" />
    <radialGradient
       xlink:href="#linearGradient94"
       id="radialGradient95"
       cx="37.968407"
       cy="113.77083"
       fx="37.968407"
       fy="113.77083"
       r="10.58333"
       gradientUnits="userSpaceOnUse"
       gradientTransform="translate(51.956148,-38.445181)" />
    <filter
       style="color-interpolation-filters:sRGB"
       id="filter116"
       x="-0.030116678"
       y="-0.05862626"
       width="1.0511504"
       height="1.1970706">
      <feGaussianBlur
         stdDeviation="2.5"
         id="feGaussianBlur116" />
    </filter>
    <linearGradient
       xlink:href="#linearGradient4"
       id="linearGradient2"
       gradientUnits="userSpaceOnUse"
       x1="-0.13404177"
       y1="66.224495"
       x2="132.55251"
       y2="66.224495" />
  </defs>
  <g
     id="layer1"
     transform="translate(0.1325,0.1325)">
    <rect
       style="fill:#0d1117;stroke:none"
       id="rect1"
       width="132.29201"
       height="132.29201"
       x="-132.29184"
       y="-0.00016784668"
       transform="scale(-1,1)" />
    <path
       d="M 0,0 V 132.29167 M 2.6458332,0 V 132.29167 M 5.2916665,0 V 132.29167 M 7.9374997,0 V 132.29167 M 10.583333,0 V 132.29167 M 13.229166,0 V 132.29167 M 15.874999,0 V 132.29167 M 18.520833,0 V 132.29167 M 21.166666,0 V 132.29167 M 23.812499,0 V 132.29167 M 26.458332,0 V 132.29167 M 29.104166,0 V 132.29167 M 31.749999,0 V 132.29167 M 34.395832,0 V 132.29167 M 37.041665,0 V 132.29167 M 39.687499,0 V 132.29167 M 42.333332,0 V 132.29167 M 44.979165,0 V 132.29167 M 47.624998,0 V 132.29167 M 50.270832,0 V 132.29167 M 52.916665,0 V 132.29167 M 55.562498,0 V 132.29167 M 58.208331,0 V 132.29167 M 60.854164,0 V 132.29167 M 63.499998,0 V 132.29167 M 66.145831,0 V 132.29167 M 68.791664,0 V 132.29167 M 71.437497,0 V 132.29167 M 74.083331,0 V 132.29167 M 76.729164,0 V 132.29167 M 79.374997,0 V 132.29167 M 82.02083,0 V 132.29167 M 84.666664,0 V 132.29167 M 87.312497,0 V 132.29167 M 89.95833,0 V 132.29167 M 92.604163,0 V 132.29167 M 95.249997,0 V 132.29167 M 97.89583,0 V 132.29167 M 100.54166,0 V 132.29167 M 103.1875,0 V 132.29167 M 105.83333,0 V 132.29167 M 108.47916,0 V 132.29167 M 111.125,0 V 132.29167 M 113.77083,0 V 132.29167 M 116.41666,0 V 132.29167 M 119.0625,0 V 132.29167 M 121.70833,0 V 132.29167 M 124.35416,0 V 132.29167 M 127,0 V 132.29167 M 129.64583,0 V 132.29167 M 132.29166,0 V 132.29167 M 0,0 H 132.29167 M 0,2.6458332 H 132.29167 M 0,5.2916665 H 132.29167 M 0,7.9374997 H 132.29167 M 0,10.583333 H 132.29167 M 0,13.229166 H 132.29167 M 0,15.874999 H 132.29167 M 0,18.520833 H 132.29167 M 0,21.166666 H 132.29167 M 0,23.812499 H 132.29167 M 0,26.458332 H 132.29167 M 0,29.104166 H 132.29167 M 0,31.749999 H 132.29167 M 0,34.395832 H 132.29167 M 0,37.041665 H 132.29167 M 0,39.687499 H 132.29167 M 0,42.333332 H 132.29167 M 0,44.979165 H 132.29167 M 0,47.624998 H 132.29167 M 0,50.270832 H 132.29167 M 0,52.916665 H 132.29167 M 0,55.562498 H 132.29167 M 0,58.208331 H 132.29167 M 0,60.854164 H 132.29167 M 0,63.499998 H 132.29167 M 0,66.145831 H 132.29167 M 0,68.791664 H 132.29167 M 0,71.437497 H 132.29167 M 0,74.083331 H 132.29167 M 0,76.729164 H 132.29167 M 0,79.374997 H 132.29167 M 0,82.02083 H 132.29167 M 0,84.666664 H 132.29167 M 0,87.312497 H 132.29167 M 0,89.95833 H 132.29167 M 0,92.604163 H 132.29167 M 0,95.249997 H 132.29167 M 0,97.89583 H 132.29167 M 0,100.54166 H 132.29167 M 0,103.1875 H 132.29167 M 0,105.83333 H 132.29167 M 0,108.47916 H 132.29167 M 0,111.125 H 132.29167 M 0,113.77083 H 132.29167 M 0,116.41666 H 132.29167 M 0,119.0625 H 132.29167 M 0,121.70833 H 132.29167 M 0,124.35416 H 132.29167 M 0,127 H 132.29167 M 0,129.64583 H 132.29167 M 0,132.29166 h 132.29167"
       style="display:none;opacity:0.2;mix-blend-mode:overlay;fill:none;stroke:#ffffff;stroke-width:0.265;stroke-dasharray:none;stroke-opacity:1"
       id="path2" />
  </g>
  <g
     id="layer2"
     transform="translate(0.1325,0.1325)">
    <path
       style="opacity:0.995461;mix-blend-mode:normal;fill:none;fill-rule:nonzero;stroke:url(#linearGradient2);stroke-width:4.5;stroke-linejoin:miter;stroke-miterlimit:203.5;stroke-dasharray:none"
       d="m 89.882979,75.328857 h -9.876913 v -0.699701 c 0,-0.156189 3.62e-4,-0.447953 -0.188614,-0.768945 -0.06559,-0.111323 -0.14841,-0.217386 -0.248567,-0.318331 v -4.47622 c 0.27526,-0.290803 0.426031,-0.611701 0.448551,-0.958598 0.0371,-0.565197 -0.294074,-0.95885 -0.331244,-1.002 l -0.0047,-0.0047 -0.0047,-0.0047 c -0.219115,-0.233858 -0.293895,-0.778095 -0.301795,-0.949827 l -0.0094,-0.184992 -0.132756,-0.128189 c -0.692913,-0.670488 -1.62989,-1.24537 -2.803449,-1.720835 v -0.02331 l 0.810284,-1.239212 c 0.402111,-0.614394 0.568721,-1.194268 0.494551,-1.722362 -0.06128,-0.43578 -0.269682,-0.678501 -0.311102,-0.722441 l -0.05071,-0.05323 -0.06457,-0.03622 c -0.135465,-0.0742 -0.290929,-0.172095 -0.471276,-0.284221 -0.0768,-0.04835 -0.15814,-0.09937 -0.24444,-0.151968 0.01465,-0.04063 0.02777,-0.08284 0.03717,-0.127717 0.05523,-0.247653 0.04581,-0.633921 -0.31315,-1.0697 -0.09406,-0.114756 -0.352078,-0.404095 -0.818047,-0.775134 -0.247653,-1.616236 -1.306173,-6.02726 -5.588819,-7.904945 0.02589,-0.273543 -0.07934,-0.48222 -0.177763,-0.587575 l -0.05118,-0.0548 -0.06457,-0.03512 c -0.0065,-0.0047 -0.01433,-0.0079 -0.02063,-0.0126 -0.01636,-0.130299 -0.07195,-0.260095 -0.166914,-0.375685 -0.05264,-0.06386 -0.348141,-0.397874 -0.972031,-0.685229 v -2.177637 c 0.133748,-0.07767 0.417512,-0.278882 0.521921,-0.641307 0.06128,-0.214 0.0782,-0.555953 -0.190157,-0.968426 -0.107874,-0.165669 -0.234725,-0.301622 -0.373622,-0.41548 -0.0932,-0.457338 -0.332835,-0.874299 -0.675418,-1.174598 -0.04393,-0.03795 -0.08913,-0.07433 -0.134803,-0.108032 0.04315,-0.129449 0.06567,-0.266677 0.06567,-0.408252 0,-0.44526 -0.223448,-0.844488 -0.572063,-1.067118 0.0087,-0.160504 0.03355,-0.296004 0.06205,-0.342614 0.317462,-0.403842 0.331352,-0.94411 0.04488,-1.409213 0.01885,-0.06291 0.02365,-0.129211 0.01575,-0.197401 -0.0069,-0.05874 -0.02237,-0.111335 -0.04394,-0.159685 0.09826,-0.173449 0.0948,-0.332315 0.07228,-0.439244 -0.0535,-0.25715 -0.250268,-0.413559 -0.439244,-0.534347 -0.01464,-0.02252 -0.03102,-0.04678 -0.04913,-0.07087 -0.192394,-0.257956 -0.408724,-0.31211 -0.541438,-0.311344 -0.132715,7.99e-4 -0.380341,0.05339 -0.572735,0.311344 -0.01811,0.02409 -0.03449,0.04835 -0.04913,0.07087 -0.188976,0.120788 -0.385748,0.277197 -0.439244,0.534347 -0.02252,0.106929 -0.02598,0.265795 0.07228,0.439244 -0.02157,0.04835 -0.03701,0.100945 -0.04394,0.159685 -0.0079,0.06819 -0.0031,0.134488 0.01575,0.197401 -0.286472,0.465103 -0.272582,1.005371 0.04488,1.409213 0.0285,0.04661 0.05339,0.18211 0.06205,0.342614 -0.348615,0.22263 -0.572063,0.621858 -0.572063,1.067118 0,0.141575 0.02252,0.278803 0.06567,0.408252 -0.04567,0.0337 -0.09087,0.07008 -0.134803,0.108032 -0.342583,0.300299 -0.582221,0.71726 -0.675418,1.174598 -0.138897,0.113858 -0.265748,0.249811 -0.373622,0.41548 -0.268362,0.412473 -0.251433,0.754426 -0.190157,0.968426 0.104409,0.362425 0.388173,0.563637 0.521921,0.641307 v 2.177637 c -0.62389,0.287355 -0.919386,0.62137 -0.972031,0.685229 -0.09496,0.11559 -0.150551,0.245386 -0.166914,0.375685 -0.0063,0.0047 -0.01417,0.0079 -0.02063,0.0126 l -0.06457,0.03512 -0.05118,0.0548 c -0.09842,0.105355 -0.203653,0.314032 -0.177763,0.587575 -4.282646,1.877685 -5.341166,6.288709 -5.588819,7.904945 -0.465969,0.371039 -0.723984,0.660378 -0.818032,0.775134 -0.358979,0.435779 -0.368393,0.822047 -0.313168,1.0697 0.0094,0.04488 0.02253,0.08709 0.03721,0.127717 -0.08628,0.0526 -0.167629,0.103622 -0.244429,0.151968 -0.180348,0.112126 -0.335811,0.210016 -0.471289,0.284221 l -0.0646,0.03622 -0.05065,0.05323 c -0.04142,0.04394 -0.249825,0.286661 -0.311091,0.722441 -0.0742,0.528094 0.09242,1.107968 0.494543,1.722362 l 0.810285,1.239212 v 0.02331 c -1.173559,0.475465 -2.110527,1.050347 -2.803445,1.720835 l -0.132803,0.128189 -0.0088,0.184992 c -0.0087,0.171732 -0.08262,0.715969 -0.301791,0.949827 l -0.0047,0.0047 -0.0052,0.0047 c -0.0371,0.04315 -0.368351,0.436803 -0.331247,1.002 0.02244,0.346897 0.173283,0.667795 0.448552,0.958598 v 4.47622 c -0.100094,0.100945 -0.182982,0.207008 -0.248565,0.318331 -0.188976,0.320992 -0.188617,0.612756 -0.188617,0.768945 v 0.699701 h -9.876917 v 1.660866 L 29.286104,77.000057 25.463719,71.437496 21.166666,88.40908 13.229166,43.629343 6.7996178,79.374997 0,71.437497"
       id="path4-1" />
    <circle
       style="opacity:1;mix-blend-mode:normal;fill:url(#radialGradient95);stroke:none;stroke-width:0.253;stroke-linejoin:miter;stroke-miterlimit:203.5;stroke-dasharray:none;stroke-opacity:1"
       id="path94"
       cx="89.924553"
       cy="75.325645"
       r="10.58333" />
    <path
       style="opacity:0.995461;mix-blend-mode:normal;fill:none;fill-rule:nonzero;stroke:url(#linearGradient6);stroke-width:4.5;stroke-linejoin:miter;stroke-miterlimit:203.5;stroke-dasharray:none;filter:url(#filter116)"
       d="m 89.882979,75.328857 h -9.876913 v -0.699701 c 0,-0.156189 3.62e-4,-0.447953 -0.188614,-0.768945 -0.06559,-0.111323 -0.14841,-0.217386 -0.248567,-0.318331 v -4.47622 c 0.27526,-0.290803 0.426031,-0.611701 0.448551,-0.958598 0.0371,-0.565197 -0.294074,-0.95885 -0.331244,-1.002 l -0.0047,-0.0047 -0.0047,-0.0047 c -0.219115,-0.233858 -0.293895,-0.778095 -0.301795,-0.949827 l -0.0094,-0.184992 -0.132756,-0.128189 c -0.692913,-0.670488 -1.62989,-1.24537 -2.803449,-1.720835 v -0.02331 l 0.810284,-1.239212 c 0.402111,-0.614394 0.568721,-1.194268 0.494551,-1.722362 -0.06128,-0.43578 -0.269682,-0.678501 -0.311102,-0.722441 l -0.05071,-0.05323 -0.06457,-0.03622 c -0.135465,-0.0742 -0.290929,-0.172095 -0.471276,-0.284221 -0.0768,-0.04835 -0.15814,-0.09937 -0.24444,-0.151968 0.01465,-0.04063 0.02777,-0.08284 0.03717,-0.127717 0.05523,-0.247653 0.04581,-0.633921 -0.31315,-1.0697 -0.09406,-0.114756 -0.352078,-0.404095 -0.818047,-0.775134 -0.247653,-1.616236 -1.306173,-6.02726 -5.588819,-7.904945 0.02589,-0.273543 -0.07934,-0.48222 -0.177763,-0.587575 l -0.05118,-0.0548 -0.06457,-0.03512 c -0.0065,-0.0047 -0.01433,-0.0079 -0.02063,-0.0126 -0.01636,-0.130299 -0.07195,-0.260095 -0.166914,-0.375685 -0.05264,-0.06386 -0.348141,-0.397874 -0.972031,-0.685229 v -2.177637 c 0.133748,-0.07767 0.417512,-0.278882 0.521921,-0.641307 0.06128,-0.214 0.0782,-0.555953 -0.190157,-0.968426 -0.107874,-0.165669 -0.234725,-0.301622 -0.373622,-0.41548 -0.0932,-0.457338 -0.332835,-0.874299 -0.675418,-1.174598 -0.04393,-0.03795 -0.08913,-0.07433 -0.134803,-0.108032 0.04315,-0.129449 0.06567,-0.266677 0.06567,-0.408252 0,-0.44526 -0.223448,-0.844488 -0.572063,-1.067118 0.0087,-0.160504 0.03355,-0.296004 0.06205,-0.342614 0.317462,-0.403842 0.331352,-0.94411 0.04488,-1.409213 0.01885,-0.06291 0.02365,-0.129211 0.01575,-0.197401 -0.0069,-0.05874 -0.02237,-0.111335 -0.04394,-0.159685 0.09826,-0.173449 0.0948,-0.332315 0.07228,-0.439244 -0.0535,-0.25715 -0.250268,-0.413559 -0.439244,-0.534347 -0.01464,-0.02252 -0.03102,-0.04678 -0.04913,-0.07087 -0.192394,-0.257956 -0.408724,-0.31211 -0.541438,-0.311344 -0.132715,7.99e-4 -0.380341,0.05339 -0.572735,0.311344 -0.01811,0.02409 -0.03449,0.04835 -0.04913,0.07087 -0.188976,0.120788 -0.385748,0.277197 -0.439244,0.534347 -0.02252,0.106929 -0.02598,0.265795 0.07228,0.439244 -0.02157,0.04835 -0.03701,0.100945 -0.04394,0.159685 -0.0079,0.06819 -0.0031,0.134488 0.01575,0.197401 -0.286472,0.465103 -0.272582,1.005371 0.04488,1.409213 0.0285,0.04661 0.05339,0.18211 0.06205,0.342614 -0.348615,0.22263 -0.572063,0.621858 -0.572063,1.067118 0,0.141575 0.02252,0.278803 0.06567,0.408252 -0.04567,0.0337 -0.09087,0.07008 -0.134803,0.108032 -0.342583,0.300299 -0.582221,0.71726 -0.675418,1.174598 -0.138897,0.113858 -0.265748,0.249811 -0.373622,0.41548 -0.268362,0.412473 -0.251433,0.754426 -0.190157,0.968426 0.104409,0.362425 0.388173,0.563637 0.521921,0.641307 v 2.177637 c -0.62389,0.287355 -0.919386,0.62137 -0.972031,0.685229 -0.09496,0.11559 -0.150551,0.245386 -0.166914,0.375685 -0.0063,0.0047 -0.01417,0.0079 -0.02063,0.0126 l -0.06457,0.03512 -0.05118,0.0548 c -0.09842,0.105355 -0.203653,0.314032 -0.177763,0.587575 -4.282646,1.877685 -5.341166,6.288709 -5.588819,7.904945 -0.465969,0.371039 -0.723984,0.660378 -0.818032,0.775134 -0.358979,0.435779 -0.368393,0.822047 -0.313168,1.0697 0.0094,0.04488 0.02253,0.08709 0.03721,0.127717 -0.08628,0.0526 -0.167629,0.103622 -0.244429,0.151968 -0.180348,0.112126 -0.335811,0.210016 -0.471289,0.284221 l -0.0646,0.03622 -0.05065,0.05323 c -0.04142,0.04394 -0.249825,0.286661 -0.311091,0.722441 -0.0742,0.528094 0.09242,1.107968 0.494543,1.722362 l 0.810285,1.239212 v 0.02331 c -1.173559,0.475465 -2.110527,1.050347 -2.803445,1.720835 l -0.132803,0.128189 -0.0088,0.184992 c -0.0087,0.171732 -0.08262,0.715969 -0.301791,0.949827 l -0.0047,0.0047 -0.0052,0.0047 c -0.0371,0.04315 -0.368351,0.436803 -0.331247,1.002 0.02244,0.346897 0.173283,0.667795 0.448552,0.958598 v 4.47622 c -0.100094,0.100945 -0.182982,0.207008 -0.248565,0.318331 -0.188976,0.320992 -0.188617,0.612756 -0.188617,0.768945 v 0.699701 h -9.876917 v 1.660866 L 29.286104,77.000057 25.463719,71.437496 21.166666,88.40908 13.229166,43.629343 6.7996178,79.374997 0,71.437497"
       id="path116" />
  </g>
</svg>
