<?xml version="1.0" encoding="UTF-8" standalone="no"?>
<!-- Created with Inkscape (http://www.inkscape.org/) -->

<svg
   width="132.55667mm"
   height="132.55667mm"
   viewBox="0 0 132.55667 132.55667"
   version="1.1"
   id="svg1"
   xmlns:xlink="http://www.w3.org/1999/xlink"
   xmlns="http://www.w3.org/2000/svg"
   xmlns:svg="http://www.w3.org/2000/svg">
  <defs
     id="defs1">
    <linearGradient
       id="linearGradient94">
      <stop
         style="stop-color:#ffffff;stop-opacity:1;"
         offset="0"
         id="stop94" />
      <stop
         style="stop-color:#3fb950;stop-opacity:1;"
         offset="0.11738427"
         id="stop97" />
      <stop
         style="stop-color:#3fb950;stop-opacity:0;"
         offset="1"
         id="stop95" />
    </linearGradient>
    <linearGradient
       id="linearGradient4">
      <stop
         style="stop-color:#3fb950;stop-opacity:0;"
         offset="0"
         id="stop4" />
      <stop
         style="stop-color:#3fb950;stop-opacity:1;"
         offset="1"
         id="stop5" />
    </linearGradient>
    <radialGradient
       xlink:href="#linearGradient94"
       id="radialGradient95"
       cx="0.5"
       cy="0.5"
       fx="0.5"
       fy="0.5"
       r="0.5"
       gradientUnits="objectBoundingBox" />
    <linearGradient
       xlink:href="#linearGradient4"
       id="linearGradient2"
       gradientUnits="userSpaceOnUse"
       x1="-0.13404177"
       y1="66.224495"
       x2="132.55251"
       y2="66.224495" />
    <linearGradient
       xlink:href="#linearGradient4"
       id="linearGradient3"
       gradientUnits="userSpaceOnUse"
       x1="-0.13404177"
       y1="66.224495"
       x2="132.55251"
       y2="66.224495" />
    <linearGradient
       xlink:href="#linearGradient4"
       id="linearGradient5"
       gradientUnits="userSpaceOnUse"
       x1="-0.13404177"
       y1="66.224495"
       x2="132.55251"
       y2="66.224495" />
    <clipPath id="revealClip">
      <rect x="-1" y="-1" width="0" height="134">
        <animate attributeName="width"
          values="1;7.8;14.23;22.17;26.46;30.29;40.17;51;61;76;91"
          keyTimes="0;0.076;0.147;0.235;0.283;0.326;0.436;0.557;0.668;0.835;1"
          dur="1.5s" fill="freeze" begin="0s"
          calcMode="spline"
          keySplines="0 0 1 1;0 0 1 1;0 0 1 1;0 0 1 1;0 0 1 1;0 0 1 1;0 0 1 1;0 0 1 1;0 0 1 1;0 0 0.4 1"/>
      </rect>
    </clipPath>
  </defs>
  <g
     id="layer2"
     transform="translate(0.1325,0.1325)">
    <g clip-path="url(#revealClip)">
    <path
       style="opacity:1;mix-blend-mode:normal;fill:none;fill-rule:nonzero;stroke:url(#linearGradient3);stroke-width:2.15;stroke-linejoin:miter;stroke-miterlimit:203.5;stroke-dasharray:none"
       d="m 89.882979,75.328857 h -9.876913 v -0.699701 c 0,-0.156189 3.62e-4,-0.447953 -0.188614,-0.768945 -0.06559,-0.111323 -0.14841,-0.217386 -0.248567,-0.318331 v -4.47622 c 0.27526,-0.290803 0.426031,-0.611701 0.448551,-0.958598 0.0371,-0.565197 -0.294074,-0.95885 -0.331244,-1.002 l -0.0047,-0.0047 -0.0047,-0.0047 c -0.219115,-0.233858 -0.293895,-0.778095 -0.301795,-0.949827 l -0.0094,-0.184992 -0.132756,-0.128189 c -0.692913,-0.670488 -1.62989,-1.24537 -2.803449,-1.720835 v -0.02331 l 0.810284,-1.239212 c 0.402111,-0.614394 0.568721,-1.194268 0.494551,-1.722362 -0.06128,-0.43578 -0.269682,-0.678501 -0.311102,-0.722441 l -0.05071,-0.05323 -0.06457,-0.03622 c -0.135465,-0.0742 -0.290929,-0.172095 -0.471276,-0.284221 -0.0768,-0.04835 -0.15814,-0.09937 -0.24444,-0.151968 0.01465,-0.04063 0.02777,-0.08284 0.03717,-0.127717 0.05523,-0.247653 0.04581,-0.633921 -0.31315,-1.0697 -0.09406,-0.114756 -0.352078,-0.404095 -0.818047,-0.775134 -0.247653,-1.616236 -1.306173,-6.02726 -5.588819,-7.904945 0.02589,-0.273543 -0.07934,-0.48222 -0.177763,-0.587575 l -0.05118,-0.0548 -0.06457,-0.03512 c -0.0065,-0.0047 -0.01433,-0.0079 -0.02063,-0.0126 -0.01636,-0.130299 -0.07195,-0.260095 -0.166914,-0.375685 -0.05264,-0.06386 -0.348141,-0.397874 -0.972031,-0.685229 v -2.177637 c 0.133748,-0.07767 0.417512,-0.278882 0.521921,-0.641307 0.06128,-0.214 0.0782,-0.555953 -0.190157,-0.968426 -0.107874,-0.165669 -0.234725,-0.301622 -0.373622,-0.41548 -0.0932,-0.457338 -0.332835,-0.874299 -0.675418,-1.174598 -0.04393,-0.03795 -0.08913,-0.07433 -0.134803,-0.108032 0.04315,-0.129449 0.06567,-0.266677 0.06567,-0.408252 0,-0.44526 0.305719,-0.844488 -0.0429,-1.067118 0.0087,-0.160504 0.03355,-0.296004 0.06205,-0.342614 0.317462,-0.403842 0.331352,-0.94411 0.04488,-1.409213 0.01885,-0.06291 -0.505517,-0.129211 -0.513417,-0.197401 -0.0069,-0.05874 -0.02237,-0.111335 -0.04394,-0.159685 0.09826,-0.173449 0.0948,-0.332315 0.07228,-0.439244 -0.0535,-0.25715 -0.250268,-0.413559 -0.439244,-0.534347 -0.01464,-0.02252 -0.03102,-0.04678 -0.04913,-0.07087 -0.192394,-0.257956 -0.408724,-0.31211 -0.541438,-0.311344 -0.132715,7.99e-4 -0.380341,0.05339 -0.572735,0.311344 -0.01811,0.02409 -0.03449,0.04835 -0.04913,0.07087 -0.188976,0.120788 -0.385748,0.277197 -0.439244,0.534347 -0.02252,0.106929 -0.02598,0.265795 0.07228,0.439244 -0.02157,0.04835 -0.03701,0.100945 -0.04394,0.159685 -0.0079,0.06819 -0.0031,0.134488 0.01575,0.197401 -0.286472,0.465103 -0.801749,1.005371 -0.484287,1.409213 0.0285,0.04661 0.05339,0.18211 0.06205,0.342614 -0.348615,0.22263 -0.0429,0.621858 -0.0429,1.067118 0,0.141575 0.02252,0.278803 0.06567,0.408252 -0.04567,0.0337 -0.09087,0.07008 -0.134803,0.108032 -0.342583,0.300299 -0.582221,0.71726 -0.675418,1.174598 -0.138897,0.113858 -0.265748,0.249811 -0.373622,0.41548 -0.268362,0.412473 -0.251433,0.754426 -0.190157,0.968426 0.104409,0.362425 0.388173,0.563637 0.521921,0.641307 v 2.177637 c -0.62389,0.287355 -0.919386,0.62137 -0.972031,0.685229 -0.09496,0.11559 -0.150551,0.245386 -0.166914,0.375685 -0.0063,0.0047 -0.01417,0.0079 -0.02063,0.0126 l -0.06457,0.03512 -0.05118,0.0548 c -0.09842,0.105355 -0.203653,0.314032 -0.177763,0.587575 -4.282646,1.877685 -5.341166,6.288709 -5.588819,7.904945 -0.465969,0.371039 -0.723984,0.660378 -0.818032,0.775134 -0.358979,0.435779 -0.368393,0.822047 -0.313168,1.0697 0.0094,0.04488 0.02253,0.08709 0.03721,0.127717 -0.08628,0.0526 -0.167629,0.103622 -0.244429,0.151968 -0.180348,0.112126 -0.335811,0.210016 -0.471289,0.284221 l -0.0646,0.03622 -0.05065,0.05323 c -0.04142,0.04394 -0.249825,0.286661 -0.311091,0.722441 -0.0742,0.528094 0.09242,1.107968 0.494543,1.722362 l 0.810285,1.239212 v 0.02331 c -1.173559,0.475465 -2.110527,1.050347 -2.803445,1.720835 l -0.132803,0.128189 -0.0088,0.184992 c -0.0087,0.171732 -0.08262,0.715969 -0.301791,0.949827 l -0.0047,0.0047 -0.0052,0.0047 c -0.0371,0.04315 -0.368351,0.436803 -0.331247,1.002 0.02244,0.346897 0.173283,0.667795 0.448552,0.958598 v 4.47622 c -0.100094,0.100945 -0.182982,0.207008 -0.248565,0.318331 -0.188976,0.320992 -0.188617,0.612756 -0.188617,0.768945 v 0.699701 h -9.876917 v 1.660866 L 29.286104,77.000057 25.463719,71.437496 21.166666,88.40908 13.229166,43.629343 6.7996178,79.374997 0,71.437497"
       id="path11" />
    <path
       style="opacity:1;mix-blend-mode:normal;fill:none;fill-rule:nonzero;stroke:url(#linearGradient5);stroke-width:2.15;stroke-linejoin:miter;stroke-miterlimit:203.5;stroke-dasharray:none"
       d="m 89.882979,75.328857 h -9.876913 v -0.699701 c 0,-0.156189 3.62e-4,-0.447953 -0.188614,-0.768945 -0.06559,-0.111323 -0.14841,-0.217386 -0.248567,-0.318331 v -4.47622 c 0.27526,-0.290803 0.426031,-0.611701 0.448551,-0.958598 0.0371,-0.565197 -0.294074,-0.95885 -0.331244,-1.002 l -0.0047,-0.0047 -0.0047,-0.0047 c -0.219115,-0.233858 -0.293895,-0.778095 -0.301795,-0.949827 l -0.0094,-0.184992 -0.132756,-0.128189 c -0.692913,-0.670488 -1.62989,-1.24537 -2.803449,-1.720835 v -0.02331 l 0.810284,-1.239212 c 0.402111,-0.614394 0.568721,-1.194268 0.494551,-1.722362 -0.06128,-0.43578 -0.269682,-0.678501 -0.311102,-0.722441 l -0.05071,-0.05323 -0.06457,-0.03622 c -0.135465,-0.0742 -0.290929,-0.172095 -0.471276,-0.284221 -0.0768,-0.04835 -0.15814,-0.09937 -0.24444,-0.151968 0.01465,-0.04063 0.02777,-0.08284 0.03717,-0.127717 0.05523,-0.247653 0.04581,-0.633921 -0.31315,-1.0697 -0.09406,-0.114756 -0.352078,-0.404095 -0.818047,-0.775134 -0.247653,-1.616236 -1.306173,-6.02726 -5.588819,-7.904945 0.02589,-0.273543 -0.07934,-0.48222 -0.177763,-0.587575 l -0.05118,-0.0548 -0.06457,-0.03512 c -0.0065,-0.0047 -0.01433,-0.0079 -0.02063,-0.0126 -0.01636,-0.130299 -0.07195,-0.260095 -0.166914,-0.375685 -0.05264,-0.06386 -0.348141,-0.397874 -0.972031,-0.685229 v -2.177637 c 0.133748,-0.07767 0.417512,-0.278882 0.521921,-0.641307 0.06128,-0.214 0.0782,-0.555953 -0.190157,-0.968426 -0.107874,-0.165669 -0.234725,-0.301622 -0.373622,-0.41548 -0.0932,-0.457338 -0.332835,-0.874299 -0.675418,-1.174598 -0.04393,-0.03795 -0.08913,-0.07433 -0.134803,-0.108032 0.04315,-0.129449 0.06567,-0.266677 0.06567,-0.408252 0,-0.44526 0.305719,-0.844488 -0.0429,-1.067118 0.0087,-0.160504 0.03355,-0.296004 0.06205,-0.342614 0.317462,-0.403842 0.331352,-0.94411 0.04488,-1.409213 0.01885,-0.06291 -0.505517,-0.129211 -0.513417,-0.197401 -0.0069,-0.05874 -0.02237,-0.111335 -0.04394,-0.159685 0.09826,-0.173449 0.0948,-0.332315 0.07228,-0.439244 -0.0535,-0.25715 -0.250268,-0.413559 -0.439244,-0.534347 -0.01464,-0.02252 -0.03102,-0.04678 -0.04913,-0.07087 -0.192394,-0.257956 -0.408724,-0.31211 -0.541438,-0.311344 -0.132715,7.99e-4 -0.380341,0.05339 -0.572735,0.311344 -0.01811,0.02409 -0.03449,0.04835 -0.04913,0.07087 -0.188976,0.120788 -0.385748,0.277197 -0.439244,0.534347 -0.02252,0.106929 -0.02598,0.265795 0.07228,0.439244 -0.02157,0.04835 -0.03701,0.100945 -0.04394,0.159685 -0.0079,0.06819 -0.0031,0.134488 0.01575,0.197401 -0.286472,0.465103 -0.801749,1.005371 -0.484287,1.409213 0.0285,0.04661 0.05339,0.18211 0.06205,0.342614 -0.348615,0.22263 -0.0429,0.621858 -0.0429,1.067118 0,0.141575 0.02252,0.278803 0.06567,0.408252 -0.04567,0.0337 -0.09087,0.07008 -0.134803,0.108032 -0.342583,0.300299 -0.582221,0.71726 -0.675418,1.174598 -0.138897,0.113858 -0.265748,0.249811 -0.373622,0.41548 -0.268362,0.412473 -0.251433,0.754426 -0.190157,0.968426 0.104409,0.362425 0.388173,0.563637 0.521921,0.641307 v 2.177637 c -0.62389,0.287355 -0.919386,0.62137 -0.972031,0.685229 -0.09496,0.11559 -0.150551,0.245386 -0.166914,0.375685 -0.0063,0.0047 -0.01417,0.0079 -0.02063,0.0126 l -0.06457,0.03512 -0.05118,0.0548 c -0.09842,0.105355 -0.203653,0.314032 -0.177763,0.587575 -4.282646,1.877685 -5.341166,6.288709 -5.588819,7.904945 -0.465969,0.371039 -0.723984,0.660378 -0.818032,0.775134 -0.358979,0.435779 -0.368393,0.822047 -0.313168,1.0697 0.0094,0.04488 0.02253,0.08709 0.03721,0.127717 -0.08628,0.0526 -0.167629,0.103622 -0.244429,0.151968 -0.180348,0.112126 -0.335811,0.210016 -0.471289,0.284221 l -0.0646,0.03622 -0.05065,0.05323 c -0.04142,0.04394 -0.249825,0.286661 -0.311091,0.722441 -0.0742,0.528094 0.09242,1.107968 0.494543,1.722362 l 0.810285,1.239212 v 0.02331 c -1.173559,0.475465 -2.110527,1.050347 -2.803445,1.720835 l -0.132803,0.128189 -0.0088,0.184992 c -0.0087,0.171732 -0.08262,0.715969 -0.301791,0.949827 l -0.0047,0.0047 -0.0052,0.0047 c -0.0371,0.04315 -0.368351,0.436803 -0.331247,1.002 0.02244,0.346897 0.173283,0.667795 0.448552,0.958598 v 4.47622 c -0.100094,0.100945 -0.182982,0.207008 -0.248565,0.318331 -0.188976,0.320992 -0.188617,0.612756 -0.188617,0.768945 v 0.699701 h -9.876917 v 1.660866 L 29.286104,77.000057 25.463719,71.437496 21.166666,88.40908 13.229166,43.629343 6.7996178,79.374997 0,71.437497"
       id="path12" />
    <path
       style="opacity:1;mix-blend-mode:normal;fill:none;fill-rule:nonzero;stroke:url(#linearGradient2);stroke-width:2.15;stroke-linejoin:miter;stroke-miterlimit:203.5;stroke-dasharray:none"
       d="m 89.882979,75.328857 h -9.876913 v -0.699701 c 0,-0.156189 3.62e-4,-0.447953 -0.188614,-0.768945 -0.06559,-0.111323 -0.14841,-0.217386 -0.248567,-0.318331 v -4.47622 c 0.27526,-0.290803 0.426031,-0.611701 0.448551,-0.958598 0.0371,-0.565197 -0.294074,-0.95885 -0.331244,-1.002 l -0.0047,-0.0047 -0.0047,-0.0047 c -0.219115,-0.233858 -0.293895,-0.778095 -0.301795,-0.949827 l -0.0094,-0.184992 -0.132756,-0.128189 c -0.692913,-0.670488 -1.62989,-1.24537 -2.803449,-1.720835 v -0.02331 l 0.810284,-1.239212 c 0.402111,-0.614394 0.568721,-1.194268 0.494551,-1.722362 -0.06128,-0.43578 -0.269682,-0.678501 -0.311102,-0.722441 l -0.05071,-0.05323 -0.06457,-0.03622 c -0.135465,-0.0742 -0.290929,-0.172095 -0.471276,-0.284221 -0.0768,-0.04835 -0.15814,-0.09937 -0.24444,-0.151968 0.01465,-0.04063 0.02777,-0.08284 0.03717,-0.127717 0.05523,-0.247653 0.04581,-0.633921 -0.31315,-1.0697 -0.09406,-0.114756 -0.352078,-0.404095 -0.818047,-0.775134 -0.247653,-1.616236 -1.306173,-6.02726 -5.588819,-7.904945 0.02589,-0.273543 -0.07934,-0.48222 -0.177763,-0.587575 l -0.05118,-0.0548 -0.06457,-0.03512 c -0.0065,-0.0047 -0.01433,-0.0079 -0.02063,-0.0126 -0.01636,-0.130299 -0.07195,-0.260095 -0.166914,-0.375685 -0.05264,-0.06386 -0.348141,-0.397874 -0.972031,-0.685229 v -2.177637 c 0.133748,-0.07767 0.417512,-0.278882 0.521921,-0.641307 0.06128,-0.214 0.0782,-0.555953 -0.190157,-0.968426 -0.107874,-0.165669 -0.234725,-0.301622 -0.373622,-0.41548 -0.0932,-0.457338 -0.332835,-0.874299 -0.675418,-1.174598 -0.04393,-0.03795 -0.08913,-0.07433 -0.134803,-0.108032 0.04315,-0.129449 0.06567,-0.266677 0.06567,-0.408252 0,-0.44526 0.305719,-0.844488 -0.0429,-1.067118 0.0087,-0.160504 0.03355,-0.296004 0.06205,-0.342614 0.317462,-0.403842 0.331352,-0.94411 0.04488,-1.409213 0.01885,-0.06291 -0.505517,-0.129211 -0.513417,-0.197401 -0.0069,-0.05874 -0.02237,-0.111335 -0.04394,-0.159685 0.09826,-0.173449 0.0948,-0.332315 0.07228,-0.439244 -0.0535,-0.25715 -0.250268,-0.413559 -0.439244,-0.534347 -0.01464,-0.02252 -0.03102,-0.04678 -0.04913,-0.07087 -0.192394,-0.257956 -0.408724,-0.31211 -0.541438,-0.311344 -0.132715,7.99e-4 -0.380341,0.05339 -0.572735,0.311344 -0.01811,0.02409 -0.03449,0.04835 -0.04913,0.07087 -0.188976,0.120788 -0.385748,0.277197 -0.439244,0.534347 -0.02252,0.106929 -0.02598,0.265795 0.07228,0.439244 -0.02157,0.04835 -0.03701,0.100945 -0.04394,0.159685 -0.0079,0.06819 -0.0031,0.134488 0.01575,0.197401 -0.286472,0.465103 -0.801749,1.005371 -0.484287,1.409213 0.0285,0.04661 0.05339,0.18211 0.06205,0.342614 -0.348615,0.22263 -0.0429,0.621858 -0.0429,1.067118 0,0.141575 0.02252,0.278803 0.06567,0.408252 -0.04567,0.0337 -0.09087,0.07008 -0.134803,0.108032 -0.342583,0.300299 -0.582221,0.71726 -0.675418,1.174598 -0.138897,0.113858 -0.265748,0.249811 -0.373622,0.41548 -0.268362,0.412473 -0.251433,0.754426 -0.190157,0.968426 0.104409,0.362425 0.388173,0.563637 0.521921,0.641307 v 2.177637 c -0.62389,0.287355 -0.919386,0.62137 -0.972031,0.685229 -0.09496,0.11559 -0.150551,0.245386 -0.166914,0.375685 -0.0063,0.0047 -0.01417,0.0079 -0.02063,0.0126 l -0.06457,0.03512 -0.05118,0.0548 c -0.09842,0.105355 -0.203653,0.314032 -0.177763,0.587575 -4.282646,1.877685 -5.341166,6.288709 -5.588819,7.904945 -0.465969,0.371039 -0.723984,0.660378 -0.818032,0.775134 -0.358979,0.435779 -0.368393,0.822047 -0.313168,1.0697 0.0094,0.04488 0.02253,0.08709 0.03721,0.127717 -0.08628,0.0526 -0.167629,0.103622 -0.244429,0.151968 -0.180348,0.112126 -0.335811,0.210016 -0.471289,0.284221 l -0.0646,0.03622 -0.05065,0.05323 c -0.04142,0.04394 -0.249825,0.286661 -0.311091,0.722441 -0.0742,0.528094 0.09242,1.107968 0.494543,1.722362 l 0.810285,1.239212 v 0.02331 c -1.173559,0.475465 -2.110527,1.050347 -2.803445,1.720835 l -0.132803,0.128189 -0.0088,0.184992 c -0.0087,0.171732 -0.08262,0.715969 -0.301791,0.949827 l -0.0047,0.0047 -0.0052,0.0047 c -0.0371,0.04315 -0.368351,0.436803 -0.331247,1.002 0.02244,0.346897 0.173283,0.667795 0.448552,0.958598 v 4.47622 c -0.100094,0.100945 -0.182982,0.207008 -0.248565,0.318331 -0.188976,0.320992 -0.188617,0.612756 -0.188617,0.768945 v 0.699701 h -9.876917 v 1.660866 L 29.286104,77.000057 25.463719,71.437496 21.166666,88.40908 13.229166,43.629343 6.7996178,79.374997 0,71.437497"
       id="path13" />
    </g>
    <circle
       style="opacity:1;mix-blend-mode:normal;fill:url(#radialGradient95);stroke:none;stroke-width:0.253;stroke-linejoin:miter;stroke-miterlimit:203.5;stroke-dasharray:none;stroke-opacity:1"
       id="path94"
       cx="0"
       cy="0"
       r="10.58333">
      <animateMotion dur="1.5s" fill="freeze"
        keyPoints="1;0.9568;0.8066;0.6186;0.5464;0.5184;0.4776;0.4259;0.3008;0.1354;0"
        keyTimes="0;0.076;0.147;0.235;0.283;0.326;0.436;0.557;0.668;0.835;1"
        calcMode="spline"
        keySplines="0 0 1 1;0 0 1 1;0 0 1 1;0 0 1 1;0 0 1 1;0 0 1 1;0 0 1 1;0 0 1 1;0 0 1 1;0 0 0.4 1">
        <mpath xlink:href="#path11"/>
      </animateMotion>
    </circle>
  </g>
</svg>
