<?xml version="1.0" encoding="UTF-8" standalone="no"?>
<!-- Created with Inkscape (http://www.inkscape.org/) -->

<svg
   width="317.5mm"
   height="166.6875mm"
   viewBox="0 0 317.5 166.6875"
   version="1.1"
   id="svg1"
   xmlns:xlink="http://www.w3.org/1999/xlink"
   xmlns="http://www.w3.org/2000/svg"
   xmlns:svg="http://www.w3.org/2000/svg">
  <defs
     id="defs1">
    <linearGradient
       xlink:href="#linearGradient4"
       id="linearGradient6"
       x1="-0.13404177"
       y1="66.224495"
       x2="132.55251"
       y2="66.224495"
       gradientUnits="userSpaceOnUse"
       gradientTransform="translate(103.76661,22.93985)" />
    <linearGradient
       id="linearGradient4">
      <stop
         style="stop-color:#ffffff;stop-opacity:0;"
         offset="0"
         id="stop4" />
      <stop
         style="stop-color:#ffffff;stop-opacity:1;"
         offset="1"
         id="stop5" />
    </linearGradient>
    <filter
       style="color-interpolation-filters:sRGB"
       id="filter116"
       x="-0.030116539"
       y="-0.058625668"
       width="1.0511502"
       height="1.1970687">
      <feGaussianBlur
         stdDeviation="0.78773958"
         id="feGaussianBlur116" />
    </filter>
    <radialGradient
       xlink:href="#linearGradient94"
       id="radialGradient95"
       cx="37.968407"
       cy="113.77083"
       fx="37.968407"
       fy="113.77083"
       r="10.58333"
       gradientUnits="userSpaceOnUse"
       gradientTransform="translate(155.72276,-15.50533)" />
    <linearGradient
       id="linearGradient94">
      <stop
         style="stop-color:#ffffff;stop-opacity:1;"
         offset="0"
         id="stop94" />
      <stop
         style="stop-color:#ffffff;stop-opacity:0;"
         offset="1"
         id="stop95" />
    </linearGradient>
    <linearGradient
       xlink:href="#linearGradient4"
       id="linearGradient1"
       gradientUnits="userSpaceOnUse"
       x1="-0.13404177"
       y1="66.224495"
       x2="132.55251"
       y2="66.224495"
       gradientTransform="translate(103.76661,22.93985)" />
    <radialGradient
       xlink:href="#linearGradient1-2"
       id="radialGradient2"
       cx="-66.145836"
       cy="66.145836"
       fx="-66.145836"
       fy="66.145836"
       r="66.146004"
       gradientUnits="userSpaceOnUse"
       gradientTransform="matrix(2.9643043,0.01248261,-0.01099208,2.6103328,38.053426,-88.493222)" />
    <linearGradient
       id="linearGradient1-2">
      <stop
         style="stop-color:#007d00;stop-opacity:1;"
         offset="0"
         id="stop1" />
      <stop
         style="stop-color:#000000;stop-opacity:1;"
         offset="1"
         id="stop2" />
    </linearGradient>
    <filter
       style="color-interpolation-filters:sRGB"
       id="filter3"
       x="-inf"
       y="-inf"
       width="inf"
       height="inf">
      <feGaussianBlur
         stdDeviation="0.059659541"
         id="feGaussianBlur3" />
    </filter>
    <filter
       style="color-interpolation-filters:sRGB"
       id="filter7"
       x="-0.14457224"
       y="-0.23588047"
       width="1.2891445"
       height="1.4717609">
      <feGaussianBlur
         stdDeviation="0.092640087"
         id="feGaussianBlur7" />
    </filter>
    <radialGradient
       xlink:href="#linearGradient94"
       id="radialGradient60"
       gradientUnits="userSpaceOnUse"
       gradientTransform="matrix(0.39329634,0,0,0.39329634,178.75832,53.519842)"
       cx="37.968407"
       cy="113.77083"
       fx="37.968407"
       fy="113.77083"
       r="10.58333" />
  </defs>
  <g
     id="layer1">
    <path
       id="rect1"
       style="fill:url(#radialGradient2);stroke:#68cc45;stroke-width:0;stroke-miterlimit:203.5"
       transform="scale(-1,1)"
       d="M -317.5,0 H 0 v 166.6875 h -317.5 z" />
    <path
       d="M 8.567501,0.40858799 V 166.6875 M 16.726417,0.40858799 V 166.6875 M 24.88533,0.40858799 V 166.6875 M 33.044243,0.40858799 V 166.6875 M 41.203156,0.40858799 V 166.6875 M 49.362069,0.40858799 V 166.6875 M 57.520985,0.40858799 V 166.6875 M 65.679898,0.40858799 V 166.6875 M 73.838811,0.40858799 V 166.6875 M 81.997724,0.40858799 V 166.6875 M 90.15664,0.40858799 V 166.6875 M 98.315553,0.40858799 V 166.6875 M 106.47446,0.40858799 V 166.6875 M 114.63339,0.40858799 V 166.6875 M 122.7923,0.40858799 V 166.6875 M 130.9512,0.40858799 V 166.6875 M 139.11014,0.40858799 V 166.6875 M 147.26904,0.40858799 V 166.6875 M 155.42794,0.40858799 V 166.6875 M 163.58688,0.40858799 V 166.6875 M 171.74578,0.40858799 V 166.6875 M 179.90469,0.40858799 V 166.6875 M 188.06359,0.40858799 V 166.6875 M 196.22252,0.40858799 V 166.6875 M 204.38143,0.40858799 V 166.6875 M 212.54033,0.40858799 V 166.6875 M 220.69927,0.40858799 V 166.6875 M 228.85817,0.40858799 V 166.6875 M 237.01707,0.40858799 V 166.6875 M 245.17601,0.40858799 V 166.6875 M 253.33491,0.40858799 V 166.6875 M 261.49382,0.40858799 V 166.6875 M 269.65275,0.40858799 V 166.6875 M 277.81165,0.40858799 V 166.6875 M 285.97056,0.40858799 V 166.6875 M 294.12949,0.40858799 V 166.6875 M 302.2884,0.40858799 V 166.6875 M 310.4473,0.40858799 V 166.6875 M 0.40858799,0.40858799 H 317.5 M 0.40858799,8.567488 H 317.5 M 0.40858799,16.726428 H 317.5 M 0.40858799,24.885328 H 317.5 M 0.40858799,33.044228 H 317.5 M 0.40858799,41.203168 H 317.5 M 0.40858799,49.362068 H 317.5 M 0.40858799,57.520978 H 317.5 M 0.40858799,65.679908 H 317.5 M 0.40858799,73.838808 H 317.5 M 0.40858799,81.997718 H 317.5 M 0.40858799,90.156648 H 317.5 M 0.40858799,98.315558 H 317.5 M 0.40858799,106.47446 H 317.5 M 0.40858799,114.63337 H 317.5 M 0.40858799,122.7923 H 317.5 M 0.40858799,130.9512 H 317.5 M 0.40858799,139.11011 H 317.5 M 0.40858799,147.26904 H 317.5 M 0.40858799,155.42795 H 317.5 M 0.40858799,163.58685 H 317.5"
       style="display:inline;opacity:0.2;mix-blend-mode:overlay;fill:none;stroke:#ffffff;stroke-width:0.817176;stroke-dasharray:none;stroke-opacity:1"
       id="path2" />
    <g
       id="g1"
       transform="matrix(1.3691512,0,0,1.3691512,-70.719077,-32.930525)">
      <path
         style="opacity:0.995461;mix-blend-mode:color-dodge;fill:none;fill-rule:nonzero;stroke:url(#linearGradient1);stroke-width:2.15;stroke-linejoin:miter;stroke-miterlimit:203.5;stroke-dasharray:none"
         d="m 193.64959,98.26871 h -9.87691 v -0.6997 c 0,-0.15619 3.6e-4,-0.44796 -0.18862,-0.76895 -0.0656,-0.11132 -0.14841,-0.21739 -0.24857,-0.31833 v -4.47622 c 0.27527,-0.2908 0.42604,-0.6117 0.44856,-0.9586 0.0371,-0.5652 -0.29408,-0.95885 -0.33125,-1.002 l -0.005,-0.005 -0.005,-0.005 c -0.21911,-0.23386 -0.29389,-0.77809 -0.30179,-0.94982 l -0.009,-0.185 -0.13276,-0.12819 c -0.69291,-0.67048 -1.62989,-1.24537 -2.80345,-1.72083 v -0.0233 l 0.81029,-1.23921 c 0.40211,-0.6144 0.56872,-1.19427 0.49455,-1.72236 -0.0613,-0.43578 -0.26969,-0.67851 -0.31111,-0.72245 l -0.0507,-0.0532 -0.0646,-0.0362 c -0.13546,-0.0742 -0.29092,-0.17209 -0.47127,-0.28422 -0.0768,-0.0483 -0.15814,-0.0994 -0.24444,-0.15196 0.0147,-0.0406 0.0278,-0.0828 0.0372,-0.12772 0.0552,-0.24765 0.0458,-0.63392 -0.31315,-1.0697 -0.0941,-0.11476 -0.35208,-0.4041 -0.81805,-0.77514 -0.24765,-1.61623 -1.30617,-6.02726 -5.58882,-7.90494 0.0259,-0.27354 -0.0793,-0.48222 -0.17776,-0.58758 l -0.0512,-0.0548 -0.0646,-0.0351 c -0.006,-0.005 -0.0143,-0.008 -0.0206,-0.0126 -0.0164,-0.13029 -0.072,-0.26009 -0.16691,-0.37568 -0.0526,-0.0639 -0.34815,-0.39787 -0.97203,-0.68523 v -2.17764 c 0.13374,-0.0777 0.41751,-0.27888 0.52192,-0.6413 0.0613,-0.214 0.0782,-0.55596 -0.19016,-0.96843 -0.10788,-0.16567 -0.23473,-0.30162 -0.37362,-0.41548 -0.0932,-0.45734 -0.33284,-0.8743 -0.67542,-1.1746 -0.0439,-0.0379 -0.0891,-0.0743 -0.1348,-0.10803 0.0431,-0.12945 0.0657,-0.26668 0.0657,-0.40825 0,-0.44526 -0.22345,-0.84449 -0.57207,-1.06712 0.009,-0.1605 0.0335,-0.296 0.062,-0.34261 0.31746,-0.40385 0.33135,-0.94411 0.0449,-1.40922 0.0188,-0.0629 0.0236,-0.12921 0.0157,-0.1974 -0.007,-0.0587 -0.0224,-0.11133 -0.0439,-0.15968 0.0983,-0.17345 0.0948,-0.33232 0.0723,-0.43925 -0.0535,-0.25715 -0.25026,-0.41356 -0.43924,-0.53434 -0.0146,-0.0225 -0.031,-0.0468 -0.0491,-0.0709 -0.1924,-0.25796 -0.40873,-0.31211 -0.54144,-0.31135 -0.13271,8e-4 -0.38034,0.0534 -0.57273,0.31135 -0.0181,0.0241 -0.0345,0.0483 -0.0491,0.0709 -0.18898,0.12078 -0.38575,0.27719 -0.43925,0.53434 -0.0225,0.10693 -0.026,0.2658 0.0723,0.43925 -0.0216,0.0483 -0.037,0.10094 -0.0439,0.15968 -0.008,0.0682 -0.003,0.13449 0.0157,0.1974 -0.28647,0.46511 -0.27258,1.00537 0.0449,1.40922 0.0285,0.0466 0.0534,0.18211 0.062,0.34261 -0.34861,0.22263 -0.57206,0.62186 -0.57206,1.06712 0,0.14157 0.0225,0.2788 0.0657,0.40825 -0.0457,0.0337 -0.0909,0.0701 -0.1348,0.10803 -0.34259,0.3003 -0.58223,0.71726 -0.67542,1.1746 -0.1389,0.11386 -0.26575,0.24981 -0.37362,0.41548 -0.26837,0.41247 -0.25144,0.75443 -0.19016,0.96843 0.10441,0.36242 0.38817,0.56363 0.52192,0.6413 v 2.17764 c -0.62389,0.28736 -0.91939,0.62137 -0.97203,0.68523 -0.095,0.11559 -0.15055,0.24539 -0.16692,0.37568 -0.006,0.005 -0.0142,0.008 -0.0206,0.0126 l -0.0646,0.0351 -0.0512,0.0548 c -0.0984,0.10536 -0.20365,0.31404 -0.17776,0.58758 -4.28264,1.87768 -5.34116,6.28871 -5.58882,7.90494 -0.46597,0.37104 -0.72398,0.66038 -0.81803,0.77514 -0.35898,0.43578 -0.36839,0.82205 -0.31317,1.0697 0.009,0.0449 0.0225,0.0871 0.0372,0.12772 -0.0863,0.0526 -0.16763,0.10362 -0.24443,0.15196 -0.18034,0.11213 -0.33581,0.21002 -0.47129,0.28422 l -0.0646,0.0362 -0.0506,0.0532 c -0.0414,0.0439 -0.24982,0.28667 -0.31109,0.72245 -0.0742,0.52809 0.0924,1.10796 0.49455,1.72236 l 0.81028,1.23921 v 0.0233 c -1.17356,0.47546 -2.11052,1.05035 -2.80344,1.72083 l -0.13281,0.12819 -0.009,0.185 c -0.009,0.17173 -0.0826,0.71596 -0.30179,0.94982 l -0.005,0.005 -0.005,0.005 c -0.0371,0.0431 -0.36835,0.4368 -0.33124,1.002 0.0224,0.3469 0.17328,0.6678 0.44855,0.9586 v 4.47622 c -0.1001,0.10094 -0.18298,0.20701 -0.24857,0.31833 -0.18897,0.32099 -0.18861,0.61276 -0.18861,0.76895 v 0.6997 h -9.87692 v 1.66086 l -13.23761,0.0103 -3.82238,-5.56256 -4.29705,16.97158 -7.9375,-44.77974 -6.42955,35.74566 -6.79962,-7.9375"
         id="path4-1" />
      <path
         id="path94"
         style="mix-blend-mode:color-dodge;fill:url(#radialGradient95);stroke-width:0.253;stroke-miterlimit:203.5"
         d="m 204.27449,98.265488 a 10.58333,10.58333 0 0 1 -10.58333,10.583332 10.58333,10.58333 0 0 1 -10.58333,-10.583332 10.58333,10.58333 0 0 1 10.58333,-10.58333 10.58333,10.58333 0 0 1 10.58333,10.58333 z" />
      <path
         style="opacity:0.995461;mix-blend-mode:color-dodge;fill:none;fill-rule:nonzero;stroke:url(#linearGradient6);stroke-width:2.15;stroke-linejoin:miter;stroke-miterlimit:203.5;stroke-dasharray:none;filter:url(#filter116)"
         d="m 193.64959,98.26871 h -9.87691 v -0.6997 c 0,-0.15619 3.6e-4,-0.44796 -0.18862,-0.76895 -0.0656,-0.11132 -0.14841,-0.21739 -0.24857,-0.31833 v -4.47622 c 0.27527,-0.2908 0.42604,-0.6117 0.44856,-0.9586 0.0371,-0.5652 -0.29408,-0.95885 -0.33125,-1.002 l -0.005,-0.005 -0.005,-0.005 c -0.21911,-0.23386 -0.29389,-0.77809 -0.30179,-0.94982 l -0.009,-0.185 -0.13276,-0.12819 c -0.69291,-0.67048 -1.62989,-1.24537 -2.80345,-1.72083 v -0.0233 l 0.81029,-1.23921 c 0.40211,-0.6144 0.56872,-1.19427 0.49455,-1.72236 -0.0613,-0.43578 -0.26969,-0.67851 -0.31111,-0.72245 l -0.0507,-0.0532 -0.0646,-0.0362 c -0.13546,-0.0742 -0.29092,-0.17209 -0.47127,-0.28422 -0.0768,-0.0483 -0.15814,-0.0994 -0.24444,-0.15196 0.0147,-0.0406 0.0278,-0.0828 0.0372,-0.12772 0.0552,-0.24765 0.0458,-0.63392 -0.31315,-1.0697 -0.0941,-0.11476 -0.35208,-0.4041 -0.81805,-0.77514 -0.24765,-1.61623 -1.30617,-6.02726 -5.58882,-7.90494 0.0259,-0.27354 -0.0793,-0.48222 -0.17776,-0.58758 l -0.0512,-0.0548 -0.0646,-0.0351 c -0.006,-0.005 -0.0143,-0.008 -0.0206,-0.0126 -0.0164,-0.13029 -0.072,-0.26009 -0.16691,-0.37568 -0.0526,-0.0639 -0.34815,-0.39787 -0.97203,-0.68523 v -2.17764 c 0.13374,-0.0777 0.41751,-0.27888 0.52192,-0.6413 0.0613,-0.214 0.0782,-0.55596 -0.19016,-0.96843 -0.10788,-0.16567 -0.23473,-0.30162 -0.37362,-0.41548 -0.0932,-0.45734 -0.33284,-0.8743 -0.67542,-1.1746 -0.0439,-0.0379 -0.0891,-0.0743 -0.1348,-0.10803 0.0431,-0.12945 0.0657,-0.26668 0.0657,-0.40825 0,-0.44526 -0.22345,-0.84449 -0.57207,-1.06712 0.009,-0.1605 0.0335,-0.296 0.062,-0.34261 0.31746,-0.40385 0.33135,-0.94411 0.0449,-1.40922 0.0188,-0.0629 0.0236,-0.12921 0.0157,-0.1974 -0.007,-0.0587 -0.0224,-0.11133 -0.0439,-0.15968 0.0983,-0.17345 0.0948,-0.33232 0.0723,-0.43925 -0.0535,-0.25715 -0.25026,-0.41356 -0.43924,-0.53434 -0.0146,-0.0225 -0.031,-0.0468 -0.0491,-0.0709 -0.1924,-0.25796 -0.40873,-0.31211 -0.54144,-0.31135 -0.13271,8e-4 -0.38034,0.0534 -0.57273,0.31135 -0.0181,0.0241 -0.0345,0.0483 -0.0491,0.0709 -0.18898,0.12078 -0.38575,0.27719 -0.43925,0.53434 -0.0225,0.10693 -0.026,0.2658 0.0723,0.43925 -0.0216,0.0483 -0.037,0.10094 -0.0439,0.15968 -0.008,0.0682 -0.003,0.13449 0.0157,0.1974 -0.28647,0.46511 -0.27258,1.00537 0.0449,1.40922 0.0285,0.0466 0.0534,0.18211 0.062,0.34261 -0.34861,0.22263 -0.57206,0.62186 -0.57206,1.06712 0,0.14157 0.0225,0.2788 0.0657,0.40825 -0.0457,0.0337 -0.0909,0.0701 -0.1348,0.10803 -0.34259,0.3003 -0.58223,0.71726 -0.67542,1.1746 -0.1389,0.11386 -0.26575,0.24981 -0.37362,0.41548 -0.26837,0.41247 -0.25144,0.75443 -0.19016,0.96843 0.10441,0.36242 0.38817,0.56363 0.52192,0.6413 v 2.17764 c -0.62389,0.28736 -0.91939,0.62137 -0.97203,0.68523 -0.095,0.11559 -0.15055,0.24539 -0.16692,0.37568 -0.006,0.005 -0.0142,0.008 -0.0206,0.0126 l -0.0646,0.0351 -0.0512,0.0548 c -0.0984,0.10536 -0.20365,0.31404 -0.17776,0.58758 -4.28264,1.87768 -5.34116,6.28871 -5.58882,7.90494 -0.46597,0.37104 -0.72398,0.66038 -0.81803,0.77514 -0.35898,0.43578 -0.36839,0.82205 -0.31317,1.0697 0.009,0.0449 0.0225,0.0871 0.0372,0.12772 -0.0863,0.0526 -0.16763,0.10362 -0.24443,0.15196 -0.18034,0.11213 -0.33581,0.21002 -0.47129,0.28422 l -0.0646,0.0362 -0.0506,0.0532 c -0.0414,0.0439 -0.24982,0.28667 -0.31109,0.72245 -0.0742,0.52809 0.0924,1.10796 0.49455,1.72236 l 0.81028,1.23921 v 0.0233 c -1.17356,0.47546 -2.11052,1.05035 -2.80344,1.72083 l -0.13281,0.12819 -0.009,0.185 c -0.009,0.17173 -0.0826,0.71596 -0.30179,0.94982 l -0.005,0.005 -0.005,0.005 c -0.0371,0.0431 -0.36835,0.4368 -0.33124,1.002 0.0224,0.3469 0.17328,0.6678 0.44855,0.9586 v 4.47622 c -0.1001,0.10094 -0.18298,0.20701 -0.24857,0.31833 -0.18897,0.32099 -0.18861,0.61276 -0.18861,0.76895 v 0.6997 h -9.87692 v 1.66086 l -13.23761,0.0103 -3.82238,-5.56256 -4.29705,16.97158 -7.9375,-44.77974 -6.42955,35.74566 -6.79962,-7.9375"
         id="path116" />
      <path
         id="circle60"
         style="fill:url(#radialGradient60);stroke-width:0.099504;stroke-miterlimit:203.5"
         d="m 197.85355,98.265488 a 4.162385,4.162385 0 0 1 -4.16239,4.162382 4.162385,4.162385 0 0 1 -4.16238,-4.162382 4.162385,4.162385 0 0 1 4.16238,-4.162385 4.162385,4.162385 0 0 1 4.16239,4.162385 z" />
    </g>
    <path
       d="m 61.013338,28.474983 h -0.979786 v -7.503418 l -1.320849,3.590479 h -0.961182 l -1.320849,-3.590479 v 7.503418 H 55.450887 V 19.72513 h 1.320849 l 1.463477,3.987353 1.457275,-3.987353 h 1.32085 z"
       id="text31"
       style="font-weight:bold;font-size:12.7px;line-height:0.7;font-family:Monospace;-inkscape-font-specification:'Monospace, Bold';font-variant-ligatures:none;text-align:center;letter-spacing:0px;mix-blend-mode:overlay;fill:#ffffff;stroke-width:0.253;stroke-miterlimit:203.5"
       aria-label="M" />
    <path
       d="m 65.800641,19.557698 q 1.469678,0 2.238623,1.16582 0.775146,1.15962 0.775146,3.379639 0,2.207617 -0.768945,3.373438 -0.768945,1.16582 -2.244824,1.16582 -1.463477,0 -2.238623,-1.159619 -0.768946,-1.165821 -0.768946,-3.379639 0,-2.213818 0.768946,-3.379639 0.768945,-1.16582 2.238623,-1.16582 z m 0,8.191748 q 1.934765,0 1.934765,-3.646289 0,-3.65249 -1.934765,-3.65249 -0.942578,0 -1.438672,0.948779 -0.489893,0.942578 -0.489893,2.703711 0,1.779736 0.489893,2.716113 0.489893,0.930176 1.438672,0.930176 z"
       id="text30"
       style="font-weight:bold;font-size:12.7px;line-height:0.7;font-family:Monospace;-inkscape-font-specification:'Monospace, Bold';font-variant-ligatures:none;text-align:center;letter-spacing:0px;mix-blend-mode:overlay;fill:#ffffff;stroke-width:0.253;stroke-miterlimit:203.5"
       aria-label="O" />
    <path
       d="m 76.075981,28.474983 h -1.128613 l -3.137793,-6.908105 v 6.908105 H 70.792583 V 19.72513 h 1.134814 l 3.150195,6.846093 V 19.72513 h 0.998389 z"
       id="text29"
       style="font-weight:bold;font-size:12.7px;line-height:0.7;font-family:Monospace;-inkscape-font-specification:'Monospace, Bold';font-variant-ligatures:none;text-align:center;letter-spacing:0px;mix-blend-mode:overlay;fill:#ffffff;stroke-width:0.253;stroke-miterlimit:203.5"
       aria-label="N" />
    <path
       d="M 83.002696,28.474983 H 79.027745 V 27.588216 H 80.53463 V 20.611897 H 79.027745 V 19.72513 h 3.974951 v 0.886767 h -1.451074 v 6.976319 h 1.451074 z"
       id="text28"
       style="font-weight:bold;font-size:12.7px;line-height:0.7;font-family:Monospace;-inkscape-font-specification:'Monospace, Bold';font-variant-ligatures:none;text-align:center;letter-spacing:0px;mix-blend-mode:overlay;fill:#ffffff;stroke-width:0.253;stroke-miterlimit:203.5"
       aria-label="I" />
    <path
       d="m 91.895175,20.549886 h -2.69751 v 7.925097 H 88.186874 V 20.549886 H 85.476962 V 19.72513 h 6.418213 z"
       id="text27"
       style="font-weight:bold;font-size:12.7px;line-height:0.7;font-family:Monospace;-inkscape-font-specification:'Monospace, Bold';font-variant-ligatures:none;text-align:center;letter-spacing:0px;mix-blend-mode:overlay;fill:#ffffff;stroke-width:0.253;stroke-miterlimit:203.5"
       aria-label="T" />
    <path
       d="m 96.285603,19.557698 q 1.469678,0 2.238623,1.16582 0.775147,1.15962 0.775147,3.379639 0,2.207617 -0.768946,3.373438 -0.768945,1.16582 -2.244824,1.16582 -1.463476,0 -2.238623,-1.159619 -0.768945,-1.165821 -0.768945,-3.379639 0,-2.213818 0.768945,-3.379639 0.768946,-1.16582 2.238623,-1.16582 z m 0,8.191748 q 1.934766,0 1.934766,-3.646289 0,-3.65249 -1.934766,-3.65249 -0.942578,0 -1.438672,0.948779 -0.489892,0.942578 -0.489892,2.703711 0,1.779736 0.489892,2.716113 0.489893,0.930176 1.438672,0.930176 z"
       id="text26"
       style="font-weight:bold;font-size:12.7px;line-height:0.7;font-family:Monospace;-inkscape-font-specification:'Monospace, Bold';font-variant-ligatures:none;text-align:center;letter-spacing:0px;mix-blend-mode:overlay;fill:#ffffff;stroke-width:0.253;stroke-miterlimit:203.5"
       aria-label="O" />
    <path
       d="m 107.39189,28.474983 h -1.27124 l -2.56728,-3.974951 h -1.12862 v 3.974951 h -1.01699 V 19.72513 h 2.47427 q 1.24644,0 1.96577,0.607715 0.72554,0.601513 0.72554,1.680517 0,0.799951 -0.5271,1.42627 -0.5271,0.620117 -1.45108,0.843359 z m -4.96714,-4.861718 h 1.28365 q 0.80615,0 1.30844,-0.434082 0.5023,-0.440284 0.5023,-1.103809 0,-1.463477 -1.78594,-1.463477 h -1.30845 z"
       id="text25"
       style="font-weight:bold;font-size:12.7px;line-height:0.7;font-family:Monospace;-inkscape-font-specification:'Monospace, Bold';font-variant-ligatures:none;text-align:center;letter-spacing:0px;mix-blend-mode:overlay;fill:#ffffff;stroke-width:0.253;stroke-miterlimit:203.5"
       aria-label="R" />
    <path
       d="m 113.48766,28.474983 h -3.97495 v -0.886767 h 1.50688 v -6.976319 h -1.50688 V 19.72513 h 3.97495 v 0.886767 h -1.45108 v 6.976319 h 1.45108 z"
       id="text24"
       style="font-weight:bold;font-size:12.7px;line-height:0.7;font-family:Monospace;-inkscape-font-specification:'Monospace, Bold';font-variant-ligatures:none;text-align:center;letter-spacing:0px;mix-blend-mode:overlay;fill:#ffffff;stroke-width:0.253;stroke-miterlimit:203.5"
       aria-label="I" />
    <path
       d="m 121.80343,28.474983 h -1.12861 l -3.1378,-6.908105 v 6.908105 h -1.01699 V 19.72513 h 1.13481 l 3.1502,6.846093 V 19.72513 h 0.99839 z"
       id="text23"
       style="font-weight:bold;font-size:12.7px;line-height:0.7;font-family:Monospace;-inkscape-font-specification:'Monospace, Bold';font-variant-ligatures:none;text-align:center;letter-spacing:0px;mix-blend-mode:overlay;fill:#ffffff;stroke-width:0.253;stroke-miterlimit:203.5"
       aria-label="N" />
    <path
       d="m 129.6045,27.854866 q -1.0728,0.787549 -2.37505,0.787549 -1.70532,0 -2.58589,-1.153418 -0.88056,-1.159619 -0.88056,-3.38584 0,-2.151806 0.84956,-3.348633 0.85576,-1.196826 2.61689,-1.196826 0.63252,0 1.25264,0.161231 0.62012,0.16123 0.99839,0.427881 l -0.33487,0.799951 q -0.87436,-0.496094 -1.91616,-0.496094 -1.20302,0 -1.79834,0.880566 -0.58911,0.880567 -0.58911,2.771924 0,3.646289 2.38745,3.646289 0.89917,0 1.35806,-0.378271 v -2.158008 h -1.5751 V 24.3326 h 2.59209 z"
       id="text22"
       style="font-weight:bold;font-size:12.7px;line-height:0.7;font-family:Monospace;-inkscape-font-specification:'Monospace, Bold';font-variant-ligatures:none;text-align:center;letter-spacing:0px;mix-blend-mode:overlay;fill:#ffffff;stroke-width:0.253;stroke-miterlimit:203.5"
       aria-label="G" />
    <path
       d="m 145.24385,20.549886 h -2.69751 v 7.925097 h -1.01079 v -7.925097 h -2.70991 V 19.72513 h 6.41821 z"
       id="text21"
       style="font-weight:bold;font-size:12.7px;line-height:0.7;font-family:Monospace;-inkscape-font-specification:'Monospace, Bold';font-variant-ligatures:none;text-align:center;letter-spacing:0px;mix-blend-mode:overlay;fill:#ffffff;stroke-width:0.253;stroke-miterlimit:203.5"
       aria-label="T" />
    <path
       d="m 152.16435,28.474983 h -1.01699 v -4.34082 h -2.99517 v 4.34082 H 147.1352 V 19.72513 h 1.01699 v 3.516064 h 2.99517 V 19.72513 h 1.01699 z"
       id="text20"
       style="font-weight:bold;font-size:12.7px;line-height:0.7;font-family:Monospace;-inkscape-font-specification:'Monospace, Bold';font-variant-ligatures:none;text-align:center;letter-spacing:0px;mix-blend-mode:overlay;fill:#ffffff;stroke-width:0.253;stroke-miterlimit:203.5"
       aria-label="H" />
    <path
       d="M 159.61817,28.474983 H 155.0479 V 19.72513 h 4.53306 v 0.886767 h -3.51606 v 2.709912 h 3.37963 v 0.886768 h -3.37963 v 3.379639 h 3.55327 z"
       id="text19"
       style="font-weight:bold;font-size:12.7px;line-height:0.7;font-family:Monospace;-inkscape-font-specification:'Monospace, Bold';font-variant-ligatures:none;text-align:center;letter-spacing:0px;mix-blend-mode:overlay;fill:#ffffff;stroke-width:0.253;stroke-miterlimit:203.5"
       aria-label="E" />
    <path
       d="m 175.02809,28.474983 h -1.01699 v -4.34082 h -2.99517 v 4.34082 h -1.01699 V 19.72513 h 1.01699 v 3.516064 h 2.99517 V 19.72513 h 1.01699 z"
       id="text18"
       style="font-weight:bold;font-size:12.7px;line-height:0.7;font-family:Monospace;-inkscape-font-specification:'Monospace, Bold';font-variant-ligatures:none;text-align:center;letter-spacing:0px;mix-blend-mode:overlay;fill:#ffffff;stroke-width:0.253;stroke-miterlimit:203.5"
       aria-label="H" />
    <path
       d="m 180.11924,19.557698 q 1.46968,0 2.23863,1.16582 0.77514,1.15962 0.77514,3.379639 0,2.207617 -0.76894,3.373438 -0.76895,1.16582 -2.24483,1.16582 -1.46347,0 -2.23862,-1.159619 -0.76894,-1.165821 -0.76894,-3.379639 0,-2.213818 0.76894,-3.379639 0.76895,-1.16582 2.23862,-1.16582 z m 0,8.191748 q 1.93477,0 1.93477,-3.646289 0,-3.65249 -1.93477,-3.65249 -0.94257,0 -1.43867,0.948779 -0.48989,0.942578 -0.48989,2.703711 0,1.779736 0.48989,2.716113 0.4899,0.930176 1.43867,0.930176 z"
       id="text17"
       style="font-weight:bold;font-size:12.7px;line-height:0.7;font-family:Monospace;-inkscape-font-specification:'Monospace, Bold';font-variant-ligatures:none;text-align:center;letter-spacing:0px;mix-blend-mode:overlay;fill:#ffffff;stroke-width:0.253;stroke-miterlimit:203.5"
       aria-label="O" />
    <path
       d="m 190.27057,25.721663 q 0,1.519287 -0.62012,2.220019 -0.61391,0.700733 -1.87275,0.700733 -2.53628,0 -2.53628,-2.895947 V 19.72513 h 1.01699 v 5.92832 q 0,2.095996 1.51929,2.095996 0.76274,0 1.11621,-0.496094 0.35967,-0.496093 0.35967,-1.612304 V 19.72513 h 1.01699 z"
       id="text16"
       style="font-weight:bold;font-size:12.7px;line-height:0.7;font-family:Monospace;-inkscape-font-specification:'Monospace, Bold';font-variant-ligatures:none;text-align:center;letter-spacing:0px;mix-blend-mode:overlay;fill:#ffffff;stroke-width:0.253;stroke-miterlimit:203.5"
       aria-label="U" />
    <path
       d="m 197.24068,20.692513 q -0.78135,-0.266651 -1.48208,-0.266651 -0.79375,0 -1.29605,0.365869 -0.49609,0.359668 -0.49609,1.029395 0,0.79375 1.30845,1.395264 0.96738,0.446484 1.27744,0.620117 0.31626,0.173633 0.63872,0.47749 0.32246,0.303857 0.51469,0.719336 0.19844,0.409277 0.19844,0.923974 0,1.277442 -0.86196,1.984375 -0.85576,0.700733 -2.02158,0.700733 -1.12862,0 -1.97818,-0.446485 l 0.21084,-0.874365 q 0.99839,0.452686 1.74253,0.452686 0.86817,0 1.38907,-0.446485 0.52709,-0.452685 0.52709,-1.240234 0,-0.58291 -0.34106,-0.985986 -0.34106,-0.409278 -1.25884,-0.830957 -0.94258,-0.434082 -1.22163,-0.589112 -0.27285,-0.16123 -0.5457,-0.440283 -0.27285,-0.279052 -0.42168,-0.626318 -0.14883,-0.347266 -0.14883,-0.756543 0,-1.085205 0.78135,-1.69292 0.78135,-0.607715 1.97817,-0.607715 0.87437,0 1.73633,0.266651 z"
       id="text15"
       style="font-weight:bold;font-size:12.7px;line-height:0.7;font-family:Monospace;-inkscape-font-specification:'Monospace, Bold';font-variant-ligatures:none;text-align:center;letter-spacing:0px;mix-blend-mode:overlay;fill:#ffffff;stroke-width:0.253;stroke-miterlimit:203.5"
       aria-label="S" />
    <path
       d="m 205.3456,28.474983 h -4.57026 V 19.72513 h 4.53305 v 0.886767 h -3.51606 v 2.709912 h 3.37964 v 0.886768 h -3.37964 v 3.379639 h 3.55327 z"
       id="text14"
       style="font-weight:bold;font-size:12.7px;line-height:0.7;font-family:Monospace;-inkscape-font-specification:'Monospace, Bold';font-variant-ligatures:none;text-align:center;letter-spacing:0px;mix-blend-mode:overlay;fill:#ffffff;stroke-width:0.253;stroke-miterlimit:203.5"
       aria-label="E" />
    <path
       d="m 220.65629,20.611897 h -3.62148 v 2.858741 h 3.29902 v 0.886767 h -3.29902 v 4.117578 h -1.017 V 19.72513 h 4.63848 z"
       id="text13"
       style="font-weight:bold;font-size:12.7px;line-height:0.7;font-family:Monospace;-inkscape-font-specification:'Monospace, Bold';font-variant-ligatures:none;text-align:center;letter-spacing:0px;mix-blend-mode:overlay;fill:#ffffff;stroke-width:0.253;stroke-miterlimit:203.5"
       aria-label="F" />
    <path
       d="m 228.40157,28.474983 h -4.7625 V 19.72513 h 1.017 v 7.863086 h 3.7455 z"
       id="text12"
       style="font-weight:bold;font-size:12.7px;line-height:0.7;font-family:Monospace;-inkscape-font-specification:'Monospace, Bold';font-variant-ligatures:none;text-align:center;letter-spacing:0px;mix-blend-mode:overlay;fill:#ffffff;stroke-width:0.253;stroke-miterlimit:203.5"
       aria-label="L" />
    <path
       d="m 233.46792,19.557698 q 1.46968,0 2.23863,1.16582 0.77514,1.15962 0.77514,3.379639 0,2.207617 -0.76894,3.373438 -0.76895,1.16582 -2.24483,1.16582 -1.46347,0 -2.23862,-1.159619 -0.76895,-1.165821 -0.76895,-3.379639 0,-2.213818 0.76895,-3.379639 0.76895,-1.16582 2.23862,-1.16582 z m 0,8.191748 q 1.93477,0 1.93477,-3.646289 0,-3.65249 -1.93477,-3.65249 -0.94258,0 -1.43867,0.948779 -0.48989,0.942578 -0.48989,2.703711 0,1.779736 0.48989,2.716113 0.48989,0.930176 1.43867,0.930176 z"
       id="text11"
       style="font-weight:bold;font-size:12.7px;line-height:0.7;font-family:Monospace;-inkscape-font-specification:'Monospace, Bold';font-variant-ligatures:none;text-align:center;letter-spacing:0px;mix-blend-mode:overlay;fill:#ffffff;stroke-width:0.253;stroke-miterlimit:203.5"
       aria-label="O" />
    <path
       d="m 241.08915,19.557698 q 1.46968,0 2.23863,1.16582 0.77514,1.15962 0.77514,3.379639 0,2.207617 -0.76894,3.373438 -0.76895,1.16582 -2.24483,1.16582 -1.46347,0 -2.23862,-1.159619 -0.76894,-1.165821 -0.76894,-3.379639 0,-2.213818 0.76894,-3.379639 0.76895,-1.16582 2.23862,-1.16582 z m 0,8.191748 q 1.93477,0 1.93477,-3.646289 0,-3.65249 -1.93477,-3.65249 -0.94257,0 -1.43867,0.948779 -0.48989,0.942578 -0.48989,2.703711 0,1.779736 0.48989,2.716113 0.48989,0.930176 1.43867,0.930176 z"
       id="text10"
       style="font-weight:bold;font-size:12.7px;line-height:0.7;font-family:Monospace;-inkscape-font-specification:'Monospace, Bold';font-variant-ligatures:none;text-align:center;letter-spacing:0px;mix-blend-mode:overlay;fill:#ffffff;stroke-width:0.253;stroke-miterlimit:203.5"
       aria-label="O" />
    <path
       d="m 252.19546,28.474983 h -1.27124 l -2.56729,-3.974951 h -1.12861 v 3.974951 h -1.01699 V 19.72513 h 2.47427 q 1.24643,0 1.96577,0.607715 0.72553,0.601513 0.72553,1.680517 0,0.799951 -0.5271,1.42627 -0.5271,0.620117 -1.45107,0.843359 z m -4.96714,-4.861718 h 1.28364 q 0.80616,0 1.30845,-0.434082 0.50229,-0.440284 0.50229,-1.103809 0,-1.463477 -1.78593,-1.463477 h -1.30845 z"
       id="text9"
       style="font-weight:bold;font-size:12.7px;line-height:0.7;font-family:Monospace;-inkscape-font-specification:'Monospace, Bold';font-variant-ligatures:none;text-align:center;letter-spacing:0px;mix-blend-mode:overlay;fill:#ffffff;stroke-width:0.253;stroke-miterlimit:203.5"
       aria-label="R" />
    <path
       d="m 256.79052,30.850032 h -0.95498 V 19.72513 h 0.95498 z"
       id="text8"
       style="font-weight:bold;font-size:12.7px;line-height:0.7;font-family:Monospace;-inkscape-font-specification:'Monospace, Bold';font-variant-ligatures:none;text-align:center;letter-spacing:0px;mix-blend-mode:overlay;fill:#ffffff;stroke-width:0.253;stroke-miterlimit:203.5"
       aria-label="|" />
    <text
       xml:space="preserve"
       style="font-weight:bold;font-size:12.7px;line-height:0.7;font-family:Monospace;-inkscape-font-specification:'Monospace, Bold';font-variant-ligatures:none;text-align:center;letter-spacing:0px;writing-mode:lr-tb;direction:ltr;text-anchor:middle;opacity:0.306533;mix-blend-mode:overlay;fill:#ff0000;fill-opacity:1;stroke-width:0.253;stroke-miterlimit:203.5;filter:url(#filter3)"
       x="157.27103"
       y="28.474983"
       id="text3"
       clip-path="none"><tspan
         id="tspan3"
         style="font-style:normal;font-variant:normal;font-weight:normal;font-stretch:normal;font-size:12.7px;font-family:Monospace;-inkscape-font-specification:Monospace;font-variant-ligatures:none;font-variant-caps:normal;font-variant-numeric:normal;font-variant-east-asian:normal;fill:#ffffff;fill-opacity:1;stroke-width:0.253"
         x="161.08165"
         y="28.474983"> </tspan></text>
    <path
       style="font-style:italic;font-size:12.7px;line-height:0.7;font-family:Monospace;-inkscape-font-specification:'Monospace Italic';font-variant-ligatures:none;text-align:center;letter-spacing:0px;text-anchor:middle;opacity:0.306533;mix-blend-mode:overlay;fill:#ffffff;stroke-width:0.253;stroke-miterlimit:203.5"
       d="M 53.676512,150.444 H 52.65952 v -4.34082 h -2.995166 v 4.34082 h -1.016992 v -8.74985 h 1.016992 v 3.51606 h 2.995166 v -3.51606 h 1.016992 z m 5.091162,-8.91728 q 1.469678,0 2.238623,1.16582 0.775147,1.15961 0.775147,3.37963 0,2.20762 -0.768946,3.37344 -0.768945,1.16582 -2.244824,1.16582 -1.463476,0 -2.238623,-1.15962 -0.768945,-1.16582 -0.768945,-3.37964 0,-2.21381 0.768945,-3.37963 0.768946,-1.16582 2.238623,-1.16582 z m 0,8.19174 q 1.934766,0 1.934766,-3.64629 0,-3.65249 -1.934766,-3.65249 -0.942578,0 -1.438672,0.94878 -0.489892,0.94258 -0.489892,2.70371 0,1.77974 0.489892,2.71612 0.489893,0.93017 1.438672,0.93017 z m 10.151318,-2.02778 q 0,1.51929 -0.620117,2.22002 -0.613916,0.70073 -1.872754,0.70073 -2.536279,0 -2.536279,-2.89595 v -6.02133 h 1.016992 v 5.92832 q 0,2.09599 1.519287,2.09599 0.762745,0 1.116211,-0.49609 0.359668,-0.49609 0.359668,-1.61231 v -5.91591 h 1.016992 z m 6.970117,-5.02915 q -0.781348,-0.26665 -1.48208,-0.26665 -0.79375,0 -1.296045,0.36587 -0.496094,0.35967 -0.496094,1.02939 0,0.79375 1.308448,1.39527 0.967382,0.44648 1.277441,0.62011 0.31626,0.17364 0.638721,0.47749 0.322461,0.30386 0.514697,0.71934 0.198437,0.40928 0.198437,0.92397 0,1.27745 -0.861962,1.98438 -0.855762,0.70073 -2.021582,0.70073 -1.128614,0 -1.978174,-0.44648 l 0.21084,-0.87437 q 0.998388,0.45269 1.742529,0.45269 0.868164,0 1.389062,-0.44649 0.5271,-0.45268 0.5271,-1.24023 0,-0.58291 -0.341064,-0.98599 -0.341065,-0.40927 -1.258838,-0.83095 -0.942578,-0.43409 -1.221631,-0.58912 -0.272852,-0.16123 -0.545703,-0.44028 -0.272852,-0.27905 -0.42168,-0.62632 -0.148828,-0.34726 -0.148828,-0.75654 0,-1.08521 0.781348,-1.69292 0.781347,-0.60771 1.978173,-0.60771 0.874366,0 1.736328,0.26665 z m 8.104932,7.78247 h -4.570264 v -8.74985 h 4.533057 v 0.88676 H 80.44077 v 2.70992 h 3.379638 v 0.88676 H 80.44077 v 3.37964 h 3.553271 z m 7.050733,-3.01997 h -3.683496 v -0.94258 h 3.683496 z m 8.259959,-4.84312 h -3.621484 v 2.85874 h 3.299023 v 0.88677 h -3.299023 v 4.11758 h -1.016992 v -8.74985 h 4.638476 z M 107.05,150.444 h -4.7625 v -8.74985 h 1.01699 v 7.86308 H 107.05 Z m 5.06636,-8.91728 q 1.46967,0 2.23862,1.16582 0.77514,1.15961 0.77514,3.37963 0,2.20762 -0.76894,3.37344 -0.76895,1.16582 -2.24482,1.16582 -1.46348,0 -2.23863,-1.15962 -0.76894,-1.16582 -0.76894,-3.37964 0,-2.21381 0.76894,-3.37963 0.76895,-1.16582 2.23863,-1.16582 z m 0,8.19174 q 1.93476,0 1.93476,-3.64629 0,-3.65249 -1.93476,-3.65249 -0.94258,0 -1.43868,0.94878 -0.48989,0.94258 -0.48989,2.70371 0,1.77974 0.48989,2.71612 0.4899,0.93017 1.43868,0.93017 z m 7.62124,-8.19174 q 1.46968,0 2.23862,1.16582 0.77515,1.15961 0.77515,3.37963 0,2.20762 -0.76895,3.37344 -0.76894,1.16582 -2.24482,1.16582 -1.46348,0 -2.23863,-1.15962 -0.76894,-1.16582 -0.76894,-3.37964 0,-2.21381 0.76894,-3.37963 0.76895,-1.16582 2.23863,-1.16582 z m 0,8.19174 q 1.93476,0 1.93476,-3.64629 0,-3.65249 -1.93476,-3.65249 -0.94258,0 -1.43867,0.94878 -0.4899,0.94258 -0.4899,2.70371 0,1.77974 0.4899,2.71612 0.48989,0.93017 1.43867,0.93017 z m 11.10629,0.72554 h -1.27124 l -2.56728,-3.97495 h -1.12861 v 3.97495 h -1.017 v -8.74985 h 2.47427 q 1.24644,0 1.96577,0.60771 0.72554,0.60152 0.72554,1.68052 0,0.79995 -0.5271,1.42627 -0.5271,0.62012 -1.45107,0.84336 z m -4.96713,-4.86172 h 1.28364 q 0.80615,0 1.30845,-0.43408 0.50229,-0.44028 0.50229,-1.10381 0,-1.46348 -1.78594,-1.46348 h -1.30844 z m 9.07851,3.44165 q 0.32866,0 0.5519,0.22324 0.22325,0.22325 0.22325,0.55191 0,0.33486 -0.22945,0.57671 -0.22324,0.23564 -0.5457,0.23564 -0.31626,0 -0.5395,-0.23564 -0.22324,-0.24185 -0.22324,-0.57671 0,-0.33486 0.21704,-0.55191 0.22324,-0.22324 0.5457,-0.22324 z m 10.00869,1.42007 h -4.57026 v -8.74985 h 4.53305 v 0.88676 h -3.51606 v 2.70992 h 3.37964 v 0.88676 h -3.37964 v 3.37964 h 3.55327 z m 8.72505,-8.74985 -2.85254,8.74985 h -1.22163 l -2.85874,-8.74985 h 1.0666 l 2.39985,7.57163 2.41226,-7.57163 z m 7.65225,8.74985 h -1.0666 l -0.96738,-3.06338 h -2.87115 l -0.97978,3.06338 h -1.0542 l 2.85874,-8.74985 h 1.22163 z m -2.32544,-3.95015 -1.14722,-3.62148 -1.14101,3.62148 z m 9.10332,3.95015 h -1.12861 l -3.1378,-6.90811 v 6.90811 h -1.01699 v -8.74985 h 1.13482 l 3.15019,6.84609 v -6.84609 h 0.99839 z m 7.49721,0 h -1.01699 v -4.34082 h -2.99516 v 4.34082 h -1.017 v -8.74985 h 1.017 v 3.51606 h 2.99516 v -3.51606 h 1.01699 z m 5.09117,-8.91728 q 1.46967,0 2.23862,1.16582 0.77514,1.15961 0.77514,3.37963 0,2.20762 -0.76894,3.37344 -0.76895,1.16582 -2.24482,1.16582 -1.46348,0 -2.23863,-1.15962 -0.76894,-1.16582 -0.76894,-3.37964 0,-2.21381 0.76894,-3.37963 0.76895,-1.16582 2.23863,-1.16582 z m 0,8.19174 q 1.93476,0 1.93476,-3.64629 0,-3.65249 -1.93476,-3.65249 -0.94258,0 -1.43868,0.94878 -0.48989,0.94258 -0.48989,2.70371 0,1.77974 0.48989,2.71612 0.4899,0.93017 1.43868,0.93017 z m 10.17612,0.72554 h -4.7625 v -8.74985 h 1.017 v 7.86308 h 3.7455 z m 7.62124,0 h -4.7625 v -8.74985 h 1.01699 v 7.86308 h 3.74551 z m 8.56382,0 h -1.0666 l -0.96738,-3.06338 h -2.87115 l -0.97978,3.06338 h -1.0542 l 2.85874,-8.74985 h 1.22163 z m -2.32544,-3.95015 -1.14722,-3.62148 -1.14101,3.62148 z m 9.10331,3.95015 h -1.12861 l -3.13779,-6.90811 v 6.90811 h -1.017 v -8.74985 h 1.13482 l 3.15019,6.84609 v -6.84609 h 0.99839 z m 2.46807,-8.74985 h 1.72393 q 1.71772,0 2.75332,1.17202 1.0356,1.16582 1.0356,3.206 0,2.0836 -1.0542,3.23081 -1.048,1.14102 -2.69131,1.14102 h -1.76734 z m 1.017,7.86308 h 0.71933 q 1.24644,0 1.97197,-0.92397 0.72554,-0.92398 0.72554,-2.56109 0,-1.6247 -0.73174,-2.55488 -0.72553,-0.93638 -1.96577,-0.93638 h -0.71933 z m 11.46597,0.88677 h -4.57026 v -8.74985 h 4.53305 v 0.88676 h -3.51606 v 2.70992 h 3.37964 v 0.88676 h -3.37964 v 3.37964 h 3.55327 z m 8.74364,0 h -1.27124 l -2.56728,-3.97495 h -1.12862 v 3.97495 h -1.01699 v -8.74985 h 2.47427 q 1.24643,0 1.96577,0.60771 0.72554,0.60152 0.72554,1.68052 0,0.79995 -0.5271,1.42627 -0.5271,0.62012 -1.45108,0.84336 z m -4.96714,-4.86172 h 1.28365 q 0.80615,0 1.30844,-0.43408 0.5023,-0.44028 0.5023,-1.10381 0,-1.46348 -1.78594,-1.46348 h -1.30845 z m 9.07853,3.44165 q 0.32866,0 0.5519,0.22324 0.22324,0.22325 0.22324,0.55191 0,0.33486 -0.22944,0.57671 -0.22324,0.23564 -0.5457,0.23564 -0.31626,0 -0.53951,-0.23564 -0.22324,-0.24185 -0.22324,-0.57671 0,-0.33486 0.21704,-0.55191 0.22324,-0.22324 0.54571,-0.22324 z m 7.64603,-7.49721 q 1.46968,0 2.23862,1.16582 0.77515,1.15961 0.77515,3.37963 0,2.20762 -0.76894,3.37344 -0.76895,1.16582 -2.24483,1.16582 -1.46348,0 -2.23862,-1.15962 -0.76895,-1.16582 -0.76895,-3.37964 0,-2.21381 0.76895,-3.37963 0.76894,-1.16582 2.23862,-1.16582 z m 0,8.19174 q 1.93477,0 1.93477,-3.64629 0,-3.65249 -1.93477,-3.65249 -0.94258,0 -1.43867,0.94878 -0.48989,0.94258 -0.48989,2.70371 0,1.77974 0.48989,2.71612 0.48989,0.93017 1.43867,0.93017 z m 11.10631,0.72554 h -1.27124 l -2.56729,-3.97495 h -1.12861 v 3.97495 h -1.01699 v -8.74985 h 2.47426 q 1.24644,0 1.96577,0.60771 0.72554,0.60152 0.72554,1.68052 0,0.79995 -0.5271,1.42627 -0.5271,0.62012 -1.45107,0.84336 z m -4.96714,-4.86172 h 1.28364 q 0.80615,0 1.30845,-0.43408 0.50229,-0.44028 0.50229,-1.10381 0,-1.46348 -1.78594,-1.46348 h -1.30844 z m 11.93726,4.2416 q -1.0728,0.78755 -2.37505,0.78755 -1.70532,0 -2.58589,-1.15342 -0.88056,-1.15962 -0.88056,-3.38584 0,-2.1518 0.84956,-3.34863 0.85576,-1.19682 2.61689,-1.19682 0.63252,0 1.25264,0.16123 0.62011,0.16123 0.99839,0.42788 l -0.33487,0.79995 q -0.87436,-0.4961 -1.91616,-0.4961 -1.20303,0 -1.79834,0.88057 -0.58911,0.88057 -0.58911,2.77192 0,3.64629 2.38745,3.64629 0.89917,0 1.35806,-0.37827 v -2.15801 h -1.5751 v -0.88056 h 2.59209 z"
       id="text4"
       aria-label="HOUSE-FLOOR.EVANHOLLANDER.ORG" />
    <path
       style="font-style:italic;font-size:12.7px;line-height:0.7;font-family:Monospace;-inkscape-font-specification:'Monospace Italic';font-variant-ligatures:none;text-align:center;letter-spacing:0px;text-anchor:middle;opacity:0.306533;mix-blend-mode:overlay;fill:#ffffff;stroke-width:0.253;stroke-miterlimit:203.5"
       d="M 53.676512,150.444 H 52.65952 v -4.34082 h -2.995166 v 4.34082 h -1.016992 v -8.74985 h 1.016992 v 3.51606 h 2.995166 v -3.51606 h 1.016992 z m 5.091162,-8.91728 q 1.469678,0 2.238623,1.16582 0.775147,1.15961 0.775147,3.37963 0,2.20762 -0.768946,3.37344 -0.768945,1.16582 -2.244824,1.16582 -1.463476,0 -2.238623,-1.15962 -0.768945,-1.16582 -0.768945,-3.37964 0,-2.21381 0.768945,-3.37963 0.768946,-1.16582 2.238623,-1.16582 z m 0,8.19174 q 1.934766,0 1.934766,-3.64629 0,-3.65249 -1.934766,-3.65249 -0.942578,0 -1.438672,0.94878 -0.489892,0.94258 -0.489892,2.70371 0,1.77974 0.489892,2.71612 0.489893,0.93017 1.438672,0.93017 z m 10.151318,-2.02778 q 0,1.51929 -0.620117,2.22002 -0.613916,0.70073 -1.872754,0.70073 -2.536279,0 -2.536279,-2.89595 v -6.02133 h 1.016992 v 5.92832 q 0,2.09599 1.519287,2.09599 0.762745,0 1.116211,-0.49609 0.359668,-0.49609 0.359668,-1.61231 v -5.91591 h 1.016992 z m 6.970117,-5.02915 q -0.781348,-0.26665 -1.48208,-0.26665 -0.79375,0 -1.296045,0.36587 -0.496094,0.35967 -0.496094,1.02939 0,0.79375 1.308448,1.39527 0.967382,0.44648 1.277441,0.62011 0.31626,0.17364 0.638721,0.47749 0.322461,0.30386 0.514697,0.71934 0.198437,0.40928 0.198437,0.92397 0,1.27745 -0.861962,1.98438 -0.855762,0.70073 -2.021582,0.70073 -1.128614,0 -1.978174,-0.44648 l 0.21084,-0.87437 q 0.998388,0.45269 1.742529,0.45269 0.868164,0 1.389062,-0.44649 0.5271,-0.45268 0.5271,-1.24023 0,-0.58291 -0.341064,-0.98599 -0.341065,-0.40927 -1.258838,-0.83095 -0.942578,-0.43409 -1.221631,-0.58912 -0.272852,-0.16123 -0.545703,-0.44028 -0.272852,-0.27905 -0.42168,-0.62632 -0.148828,-0.34726 -0.148828,-0.75654 0,-1.08521 0.781348,-1.69292 0.781347,-0.60771 1.978173,-0.60771 0.874366,0 1.736328,0.26665 z m 8.104932,7.78247 h -4.570264 v -8.74985 h 4.533057 v 0.88676 H 80.44077 v 2.70992 h 3.379638 v 0.88676 H 80.44077 v 3.37964 h 3.553271 z m 7.050733,-3.01997 h -3.683496 v -0.94258 h 3.683496 z m 8.259959,-4.84312 h -3.621484 v 2.85874 h 3.299023 v 0.88677 h -3.299023 v 4.11758 h -1.016992 v -8.74985 h 4.638476 z M 107.05,150.444 h -4.7625 v -8.74985 h 1.01699 v 7.86308 H 107.05 Z m 5.06636,-8.91728 q 1.46967,0 2.23862,1.16582 0.77514,1.15961 0.77514,3.37963 0,2.20762 -0.76894,3.37344 -0.76895,1.16582 -2.24482,1.16582 -1.46348,0 -2.23863,-1.15962 -0.76894,-1.16582 -0.76894,-3.37964 0,-2.21381 0.76894,-3.37963 0.76895,-1.16582 2.23863,-1.16582 z m 0,8.19174 q 1.93476,0 1.93476,-3.64629 0,-3.65249 -1.93476,-3.65249 -0.94258,0 -1.43868,0.94878 -0.48989,0.94258 -0.48989,2.70371 0,1.77974 0.48989,2.71612 0.4899,0.93017 1.43868,0.93017 z m 7.62124,-8.19174 q 1.46968,0 2.23862,1.16582 0.77515,1.15961 0.77515,3.37963 0,2.20762 -0.76895,3.37344 -0.76894,1.16582 -2.24482,1.16582 -1.46348,0 -2.23863,-1.15962 -0.76894,-1.16582 -0.76894,-3.37964 0,-2.21381 0.76894,-3.37963 0.76895,-1.16582 2.23863,-1.16582 z m 0,8.19174 q 1.93476,0 1.93476,-3.64629 0,-3.65249 -1.93476,-3.65249 -0.94258,0 -1.43867,0.94878 -0.4899,0.94258 -0.4899,2.70371 0,1.77974 0.4899,2.71612 0.48989,0.93017 1.43867,0.93017 z m 11.10629,0.72554 h -1.27124 l -2.56728,-3.97495 h -1.12861 v 3.97495 h -1.017 v -8.74985 h 2.47427 q 1.24644,0 1.96577,0.60771 0.72554,0.60152 0.72554,1.68052 0,0.79995 -0.5271,1.42627 -0.5271,0.62012 -1.45107,0.84336 z m -4.96713,-4.86172 h 1.28364 q 0.80615,0 1.30845,-0.43408 0.50229,-0.44028 0.50229,-1.10381 0,-1.46348 -1.78594,-1.46348 h -1.30844 z m 9.07851,3.44165 q 0.32866,0 0.5519,0.22324 0.22325,0.22325 0.22325,0.55191 0,0.33486 -0.22945,0.57671 -0.22324,0.23564 -0.5457,0.23564 -0.31626,0 -0.5395,-0.23564 -0.22324,-0.24185 -0.22324,-0.57671 0,-0.33486 0.21704,-0.55191 0.22324,-0.22324 0.5457,-0.22324 z m 10.00869,1.42007 h -4.57026 v -8.74985 h 4.53305 v 0.88676 h -3.51606 v 2.70992 h 3.37964 v 0.88676 h -3.37964 v 3.37964 h 3.55327 z m 8.72505,-8.74985 -2.85254,8.74985 h -1.22163 l -2.85874,-8.74985 h 1.0666 l 2.39985,7.57163 2.41226,-7.57163 z m 7.65225,8.74985 h -1.0666 l -0.96738,-3.06338 h -2.87115 l -0.97978,3.06338 h -1.0542 l 2.85874,-8.74985 h 1.22163 z m -2.32544,-3.95015 -1.14722,-3.62148 -1.14101,3.62148 z m 9.10332,3.95015 h -1.12861 l -3.1378,-6.90811 v 6.90811 h -1.01699 v -8.74985 h 1.13482 l 3.15019,6.84609 v -6.84609 h 0.99839 z m 7.49721,0 h -1.01699 v -4.34082 h -2.99516 v 4.34082 h -1.017 v -8.74985 h 1.017 v 3.51606 h 2.99516 v -3.51606 h 1.01699 z m 5.09117,-8.91728 q 1.46967,0 2.23862,1.16582 0.77514,1.15961 0.77514,3.37963 0,2.20762 -0.76894,3.37344 -0.76895,1.16582 -2.24482,1.16582 -1.46348,0 -2.23863,-1.15962 -0.76894,-1.16582 -0.76894,-3.37964 0,-2.21381 0.76894,-3.37963 0.76895,-1.16582 2.23863,-1.16582 z m 0,8.19174 q 1.93476,0 1.93476,-3.64629 0,-3.65249 -1.93476,-3.65249 -0.94258,0 -1.43868,0.94878 -0.48989,0.94258 -0.48989,2.70371 0,1.77974 0.48989,2.71612 0.4899,0.93017 1.43868,0.93017 z m 10.17612,0.72554 h -4.7625 v -8.74985 h 1.017 v 7.86308 h 3.7455 z m 7.62124,0 h -4.7625 v -8.74985 h 1.01699 v 7.86308 h 3.74551 z m 8.56382,0 h -1.0666 l -0.96738,-3.06338 h -2.87115 l -0.97978,3.06338 h -1.0542 l 2.85874,-8.74985 h 1.22163 z m -2.32544,-3.95015 -1.14722,-3.62148 -1.14101,3.62148 z m 9.10331,3.95015 h -1.12861 l -3.13779,-6.90811 v 6.90811 h -1.017 v -8.74985 h 1.13482 l 3.15019,6.84609 v -6.84609 h 0.99839 z m 2.46807,-8.74985 h 1.72393 q 1.71772,0 2.75332,1.17202 1.0356,1.16582 1.0356,3.206 0,2.0836 -1.0542,3.23081 -1.048,1.14102 -2.69131,1.14102 h -1.76734 z m 1.017,7.86308 h 0.71933 q 1.24644,0 1.97197,-0.92397 0.72554,-0.92398 0.72554,-2.56109 0,-1.6247 -0.73174,-2.55488 -0.72553,-0.93638 -1.96577,-0.93638 h -0.71933 z m 11.46597,0.88677 h -4.57026 v -8.74985 h 4.53305 v 0.88676 h -3.51606 v 2.70992 h 3.37964 v 0.88676 h -3.37964 v 3.37964 h 3.55327 z m 8.74364,0 h -1.27124 l -2.56728,-3.97495 h -1.12862 v 3.97495 h -1.01699 v -8.74985 h 2.47427 q 1.24643,0 1.96577,0.60771 0.72554,0.60152 0.72554,1.68052 0,0.79995 -0.5271,1.42627 -0.5271,0.62012 -1.45108,0.84336 z m -4.96714,-4.86172 h 1.28365 q 0.80615,0 1.30844,-0.43408 0.5023,-0.44028 0.5023,-1.10381 0,-1.46348 -1.78594,-1.46348 h -1.30845 z m 9.07853,3.44165 q 0.32866,0 0.5519,0.22324 0.22324,0.22325 0.22324,0.55191 0,0.33486 -0.22944,0.57671 -0.22324,0.23564 -0.5457,0.23564 -0.31626,0 -0.53951,-0.23564 -0.22324,-0.24185 -0.22324,-0.57671 0,-0.33486 0.21704,-0.55191 0.22324,-0.22324 0.54571,-0.22324 z m 7.64603,-7.49721 q 1.46968,0 2.23862,1.16582 0.77515,1.15961 0.77515,3.37963 0,2.20762 -0.76894,3.37344 -0.76895,1.16582 -2.24483,1.16582 -1.46348,0 -2.23862,-1.15962 -0.76895,-1.16582 -0.76895,-3.37964 0,-2.21381 0.76895,-3.37963 0.76894,-1.16582 2.23862,-1.16582 z m 0,8.19174 q 1.93477,0 1.93477,-3.64629 0,-3.65249 -1.93477,-3.65249 -0.94258,0 -1.43867,0.94878 -0.48989,0.94258 -0.48989,2.70371 0,1.77974 0.48989,2.71612 0.48989,0.93017 1.43867,0.93017 z m 11.10631,0.72554 h -1.27124 l -2.56729,-3.97495 h -1.12861 v 3.97495 h -1.01699 v -8.74985 h 2.47426 q 1.24644,0 1.96577,0.60771 0.72554,0.60152 0.72554,1.68052 0,0.79995 -0.5271,1.42627 -0.5271,0.62012 -1.45107,0.84336 z m -4.96714,-4.86172 h 1.28364 q 0.80615,0 1.30845,-0.43408 0.50229,-0.44028 0.50229,-1.10381 0,-1.46348 -1.78594,-1.46348 h -1.30844 z m 11.93726,4.2416 q -1.0728,0.78755 -2.37505,0.78755 -1.70532,0 -2.58589,-1.15342 -0.88056,-1.15962 -0.88056,-3.38584 0,-2.1518 0.84956,-3.34863 0.85576,-1.19682 2.61689,-1.19682 0.63252,0 1.25264,0.16123 0.62011,0.16123 0.99839,0.42788 l -0.33487,0.79995 q -0.87436,-0.4961 -1.91616,-0.4961 -1.20303,0 -1.79834,0.88057 -0.58911,0.88057 -0.58911,2.77192 0,3.64629 2.38745,3.64629 0.89917,0 1.35806,-0.37827 v -2.15801 h -1.5751 v -0.88056 h 2.59209 z"
       id="text5"
       aria-label="HOUSE-FLOOR.EVANHOLLANDER.ORG" />
    <path
       style="font-style:italic;font-size:12.7px;line-height:0.7;font-family:Monospace;-inkscape-font-specification:'Monospace Italic';font-variant-ligatures:none;text-align:center;letter-spacing:0px;text-anchor:middle;opacity:0.306533;mix-blend-mode:overlay;fill:#ffffff;stroke-width:0.253;stroke-miterlimit:203.5"
       d="M 53.676512,150.444 H 52.65952 v -4.34082 h -2.995166 v 4.34082 h -1.016992 v -8.74985 h 1.016992 v 3.51606 h 2.995166 v -3.51606 h 1.016992 z m 5.091162,-8.91728 q 1.469678,0 2.238623,1.16582 0.775147,1.15961 0.775147,3.37963 0,2.20762 -0.768946,3.37344 -0.768945,1.16582 -2.244824,1.16582 -1.463476,0 -2.238623,-1.15962 -0.768945,-1.16582 -0.768945,-3.37964 0,-2.21381 0.768945,-3.37963 0.768946,-1.16582 2.238623,-1.16582 z m 0,8.19174 q 1.934766,0 1.934766,-3.64629 0,-3.65249 -1.934766,-3.65249 -0.942578,0 -1.438672,0.94878 -0.489892,0.94258 -0.489892,2.70371 0,1.77974 0.489892,2.71612 0.489893,0.93017 1.438672,0.93017 z m 10.151318,-2.02778 q 0,1.51929 -0.620117,2.22002 -0.613916,0.70073 -1.872754,0.70073 -2.536279,0 -2.536279,-2.89595 v -6.02133 h 1.016992 v 5.92832 q 0,2.09599 1.519287,2.09599 0.762745,0 1.116211,-0.49609 0.359668,-0.49609 0.359668,-1.61231 v -5.91591 h 1.016992 z m 6.970117,-5.02915 q -0.781348,-0.26665 -1.48208,-0.26665 -0.79375,0 -1.296045,0.36587 -0.496094,0.35967 -0.496094,1.02939 0,0.79375 1.308448,1.39527 0.967382,0.44648 1.277441,0.62011 0.31626,0.17364 0.638721,0.47749 0.322461,0.30386 0.514697,0.71934 0.198437,0.40928 0.198437,0.92397 0,1.27745 -0.861962,1.98438 -0.855762,0.70073 -2.021582,0.70073 -1.128614,0 -1.978174,-0.44648 l 0.21084,-0.87437 q 0.998388,0.45269 1.742529,0.45269 0.868164,0 1.389062,-0.44649 0.5271,-0.45268 0.5271,-1.24023 0,-0.58291 -0.341064,-0.98599 -0.341065,-0.40927 -1.258838,-0.83095 -0.942578,-0.43409 -1.221631,-0.58912 -0.272852,-0.16123 -0.545703,-0.44028 -0.272852,-0.27905 -0.42168,-0.62632 -0.148828,-0.34726 -0.148828,-0.75654 0,-1.08521 0.781348,-1.69292 0.781347,-0.60771 1.978173,-0.60771 0.874366,0 1.736328,0.26665 z m 8.104932,7.78247 h -4.570264 v -8.74985 h 4.533057 v 0.88676 H 80.44077 v 2.70992 h 3.379638 v 0.88676 H 80.44077 v 3.37964 h 3.553271 z m 7.050733,-3.01997 h -3.683496 v -0.94258 h 3.683496 z m 8.259959,-4.84312 h -3.621484 v 2.85874 h 3.299023 v 0.88677 h -3.299023 v 4.11758 h -1.016992 v -8.74985 h 4.638476 z M 107.05,150.444 h -4.7625 v -8.74985 h 1.01699 v 7.86308 H 107.05 Z m 5.06636,-8.91728 q 1.46967,0 2.23862,1.16582 0.77514,1.15961 0.77514,3.37963 0,2.20762 -0.76894,3.37344 -0.76895,1.16582 -2.24482,1.16582 -1.46348,0 -2.23863,-1.15962 -0.76894,-1.16582 -0.76894,-3.37964 0,-2.21381 0.76894,-3.37963 0.76895,-1.16582 2.23863,-1.16582 z m 0,8.19174 q 1.93476,0 1.93476,-3.64629 0,-3.65249 -1.93476,-3.65249 -0.94258,0 -1.43868,0.94878 -0.48989,0.94258 -0.48989,2.70371 0,1.77974 0.48989,2.71612 0.4899,0.93017 1.43868,0.93017 z m 7.62124,-8.19174 q 1.46968,0 2.23862,1.16582 0.77515,1.15961 0.77515,3.37963 0,2.20762 -0.76895,3.37344 -0.76894,1.16582 -2.24482,1.16582 -1.46348,0 -2.23863,-1.15962 -0.76894,-1.16582 -0.76894,-3.37964 0,-2.21381 0.76894,-3.37963 0.76895,-1.16582 2.23863,-1.16582 z m 0,8.19174 q 1.93476,0 1.93476,-3.64629 0,-3.65249 -1.93476,-3.65249 -0.94258,0 -1.43867,0.94878 -0.4899,0.94258 -0.4899,2.70371 0,1.77974 0.4899,2.71612 0.48989,0.93017 1.43867,0.93017 z m 11.10629,0.72554 h -1.27124 l -2.56728,-3.97495 h -1.12861 v 3.97495 h -1.017 v -8.74985 h 2.47427 q 1.24644,0 1.96577,0.60771 0.72554,0.60152 0.72554,1.68052 0,0.79995 -0.5271,1.42627 -0.5271,0.62012 -1.45107,0.84336 z m -4.96713,-4.86172 h 1.28364 q 0.80615,0 1.30845,-0.43408 0.50229,-0.44028 0.50229,-1.10381 0,-1.46348 -1.78594,-1.46348 h -1.30844 z m 9.07851,3.44165 q 0.32866,0 0.5519,0.22324 0.22325,0.22325 0.22325,0.55191 0,0.33486 -0.22945,0.57671 -0.22324,0.23564 -0.5457,0.23564 -0.31626,0 -0.5395,-0.23564 -0.22324,-0.24185 -0.22324,-0.57671 0,-0.33486 0.21704,-0.55191 0.22324,-0.22324 0.5457,-0.22324 z m 10.00869,1.42007 h -4.57026 v -8.74985 h 4.53305 v 0.88676 h -3.51606 v 2.70992 h 3.37964 v 0.88676 h -3.37964 v 3.37964 h 3.55327 z m 8.72505,-8.74985 -2.85254,8.74985 h -1.22163 l -2.85874,-8.74985 h 1.0666 l 2.39985,7.57163 2.41226,-7.57163 z m 7.65225,8.74985 h -1.0666 l -0.96738,-3.06338 h -2.87115 l -0.97978,3.06338 h -1.0542 l 2.85874,-8.74985 h 1.22163 z m -2.32544,-3.95015 -1.14722,-3.62148 -1.14101,3.62148 z m 9.10332,3.95015 h -1.12861 l -3.1378,-6.90811 v 6.90811 h -1.01699 v -8.74985 h 1.13482 l 3.15019,6.84609 v -6.84609 h 0.99839 z m 7.49721,0 h -1.01699 v -4.34082 h -2.99516 v 4.34082 h -1.017 v -8.74985 h 1.017 v 3.51606 h 2.99516 v -3.51606 h 1.01699 z m 5.09117,-8.91728 q 1.46967,0 2.23862,1.16582 0.77514,1.15961 0.77514,3.37963 0,2.20762 -0.76894,3.37344 -0.76895,1.16582 -2.24482,1.16582 -1.46348,0 -2.23863,-1.15962 -0.76894,-1.16582 -0.76894,-3.37964 0,-2.21381 0.76894,-3.37963 0.76895,-1.16582 2.23863,-1.16582 z m 0,8.19174 q 1.93476,0 1.93476,-3.64629 0,-3.65249 -1.93476,-3.65249 -0.94258,0 -1.43868,0.94878 -0.48989,0.94258 -0.48989,2.70371 0,1.77974 0.48989,2.71612 0.4899,0.93017 1.43868,0.93017 z m 10.17612,0.72554 h -4.7625 v -8.74985 h 1.017 v 7.86308 h 3.7455 z m 7.62124,0 h -4.7625 v -8.74985 h 1.01699 v 7.86308 h 3.74551 z m 8.56382,0 h -1.0666 l -0.96738,-3.06338 h -2.87115 l -0.97978,3.06338 h -1.0542 l 2.85874,-8.74985 h 1.22163 z m -2.32544,-3.95015 -1.14722,-3.62148 -1.14101,3.62148 z m 9.10331,3.95015 h -1.12861 l -3.13779,-6.90811 v 6.90811 h -1.017 v -8.74985 h 1.13482 l 3.15019,6.84609 v -6.84609 h 0.99839 z m 2.46807,-8.74985 h 1.72393 q 1.71772,0 2.75332,1.17202 1.0356,1.16582 1.0356,3.206 0,2.0836 -1.0542,3.23081 -1.048,1.14102 -2.69131,1.14102 h -1.76734 z m 1.017,7.86308 h 0.71933 q 1.24644,0 1.97197,-0.92397 0.72554,-0.92398 0.72554,-2.56109 0,-1.6247 -0.73174,-2.55488 -0.72553,-0.93638 -1.96577,-0.93638 h -0.71933 z m 11.46597,0.88677 h -4.57026 v -8.74985 h 4.53305 v 0.88676 h -3.51606 v 2.70992 h 3.37964 v 0.88676 h -3.37964 v 3.37964 h 3.55327 z m 8.74364,0 h -1.27124 l -2.56728,-3.97495 h -1.12862 v 3.97495 h -1.01699 v -8.74985 h 2.47427 q 1.24643,0 1.96577,0.60771 0.72554,0.60152 0.72554,1.68052 0,0.79995 -0.5271,1.42627 -0.5271,0.62012 -1.45108,0.84336 z m -4.96714,-4.86172 h 1.28365 q 0.80615,0 1.30844,-0.43408 0.5023,-0.44028 0.5023,-1.10381 0,-1.46348 -1.78594,-1.46348 h -1.30845 z m 9.07853,3.44165 q 0.32866,0 0.5519,0.22324 0.22324,0.22325 0.22324,0.55191 0,0.33486 -0.22944,0.57671 -0.22324,0.23564 -0.5457,0.23564 -0.31626,0 -0.53951,-0.23564 -0.22324,-0.24185 -0.22324,-0.57671 0,-0.33486 0.21704,-0.55191 0.22324,-0.22324 0.54571,-0.22324 z m 7.64603,-7.49721 q 1.46968,0 2.23862,1.16582 0.77515,1.15961 0.77515,3.37963 0,2.20762 -0.76894,3.37344 -0.76895,1.16582 -2.24483,1.16582 -1.46348,0 -2.23862,-1.15962 -0.76895,-1.16582 -0.76895,-3.37964 0,-2.21381 0.76895,-3.37963 0.76894,-1.16582 2.23862,-1.16582 z m 0,8.19174 q 1.93477,0 1.93477,-3.64629 0,-3.65249 -1.93477,-3.65249 -0.94258,0 -1.43867,0.94878 -0.48989,0.94258 -0.48989,2.70371 0,1.77974 0.48989,2.71612 0.48989,0.93017 1.43867,0.93017 z m 11.10631,0.72554 h -1.27124 l -2.56729,-3.97495 h -1.12861 v 3.97495 h -1.01699 v -8.74985 h 2.47426 q 1.24644,0 1.96577,0.60771 0.72554,0.60152 0.72554,1.68052 0,0.79995 -0.5271,1.42627 -0.5271,0.62012 -1.45107,0.84336 z m -4.96714,-4.86172 h 1.28364 q 0.80615,0 1.30845,-0.43408 0.50229,-0.44028 0.50229,-1.10381 0,-1.46348 -1.78594,-1.46348 h -1.30844 z m 11.93726,4.2416 q -1.0728,0.78755 -2.37505,0.78755 -1.70532,0 -2.58589,-1.15342 -0.88056,-1.15962 -0.88056,-3.38584 0,-2.1518 0.84956,-3.34863 0.85576,-1.19682 2.61689,-1.19682 0.63252,0 1.25264,0.16123 0.62011,0.16123 0.99839,0.42788 l -0.33487,0.79995 q -0.87436,-0.4961 -1.91616,-0.4961 -1.20303,0 -1.79834,0.88057 -0.58911,0.88057 -0.58911,2.77192 0,3.64629 2.38745,3.64629 0.89917,0 1.35806,-0.37827 v -2.15801 h -1.5751 v -0.88056 h 2.59209 z"
       id="text6"
       aria-label="HOUSE-FLOOR.EVANHOLLANDER.ORG" />
    <path
       d="m 53.676514,150.444 h -1.016993 v -4.34082 h -2.995166 v 4.34082 h -1.016992 v -8.74985 h 1.016992 v 3.51606 h 2.995166 v -3.51606 h 1.016993 z"
       id="text60"
       style="font-size:12.7px;line-height:0.7;font-family:Monospace;-inkscape-font-specification:Monospace;font-variant-ligatures:none;text-align:center;letter-spacing:0px;opacity:0.00818158;mix-blend-mode:overlay;fill:#ffffff;stroke-width:0.253;stroke-miterlimit:203.5;filter:url(#filter7)"
       aria-label="H" />
    <path
       d="m 58.767674,141.52672 q 1.469678,0 2.238623,1.16582 0.775147,1.15961 0.775147,3.37963 0,2.20762 -0.768946,3.37344 -0.768945,1.16582 -2.244824,1.16582 -1.463476,0 -2.238623,-1.15962 -0.768945,-1.16582 -0.768945,-3.37964 0,-2.21381 0.768945,-3.37963 0.768945,-1.16582 2.238623,-1.16582 z m 0,8.19174 q 1.934766,0 1.934766,-3.64629 0,-3.65249 -1.934766,-3.65249 -0.942578,0 -1.438672,0.94878 -0.489892,0.94258 -0.489892,2.70371 0,1.77974 0.489892,2.71612 0.489893,0.93017 1.438672,0.93017 z"
       id="text59"
       style="font-size:12.7px;line-height:0.7;font-family:Monospace;-inkscape-font-specification:Monospace;font-variant-ligatures:none;text-align:center;letter-spacing:0px;opacity:0.00818158;mix-blend-mode:overlay;fill:#ffffff;stroke-width:0.253;stroke-miterlimit:203.5;filter:url(#filter7)"
       aria-label="O" />
    <path
       d="m 68.918991,147.69068 q 0,1.51929 -0.620117,2.22002 -0.613916,0.70073 -1.872754,0.70073 -2.536279,0 -2.536279,-2.89595 v -6.02133 h 1.016992 v 5.92832 q 0,2.09599 1.519287,2.09599 0.762744,0 1.116211,-0.49609 0.359668,-0.49609 0.359668,-1.61231 v -5.91591 h 1.016992 z"
       id="text58"
       style="font-size:12.7px;line-height:0.7;font-family:Monospace;-inkscape-font-specification:Monospace;font-variant-ligatures:none;text-align:center;letter-spacing:0px;opacity:0.00818158;mix-blend-mode:overlay;fill:#ffffff;stroke-width:0.253;stroke-miterlimit:203.5;filter:url(#filter7)"
       aria-label="U" />
    <path
       d="m 75.889107,142.66153 q -0.781348,-0.26665 -1.48208,-0.26665 -0.79375,0 -1.296045,0.36587 -0.496094,0.35967 -0.496094,1.02939 0,0.79375 1.308447,1.39527 0.967383,0.44648 1.277442,0.62011 0.316259,0.17364 0.63872,0.47749 0.322461,0.30386 0.514698,0.71934 0.198437,0.40928 0.198437,0.92397 0,1.27745 -0.861963,1.98438 -0.855762,0.70073 -2.021582,0.70073 -1.128613,0 -1.978174,-0.44648 l 0.21084,-0.87437 q 0.998389,0.45269 1.742529,0.45269 0.868165,0 1.389063,-0.44649 0.5271,-0.45268 0.5271,-1.24023 0,-0.58291 -0.341065,-0.98599 -0.341064,-0.40927 -1.258838,-0.83095 -0.942578,-0.43409 -1.221631,-0.58912 -0.272851,-0.16123 -0.545703,-0.44028 -0.272851,-0.27905 -0.421679,-0.62632 -0.148829,-0.34726 -0.148829,-0.75654 0,-1.08521 0.781348,-1.69292 0.781348,-0.60771 1.978174,-0.60771 0.874365,0 1.736328,0.26665 z"
       id="text57"
       style="font-size:12.7px;line-height:0.7;font-family:Monospace;-inkscape-font-specification:Monospace;font-variant-ligatures:none;text-align:center;letter-spacing:0px;opacity:0.00818158;mix-blend-mode:overlay;fill:#ffffff;stroke-width:0.253;stroke-miterlimit:203.5;filter:url(#filter7)"
       aria-label="S" />
    <path
       d="m 83.994044,150.444 h -4.570263 v -8.74985 h 4.533056 v 0.88676 h -3.516064 v 2.70992 h 3.379639 v 0.88676 h -3.379639 v 3.37964 h 3.553271 z"
       id="text56"
       style="font-size:12.7px;line-height:0.7;font-family:Monospace;-inkscape-font-specification:Monospace;font-variant-ligatures:none;text-align:center;letter-spacing:0px;opacity:0.00818158;mix-blend-mode:overlay;fill:#ffffff;stroke-width:0.253;stroke-miterlimit:203.5;filter:url(#filter7)"
       aria-label="E" />
    <path
       d="m 91.044775,147.42403 h -3.683496 v -0.94258 h 3.683496 z"
       id="text55"
       style="font-size:12.7px;line-height:0.7;font-family:Monospace;-inkscape-font-specification:Monospace;font-variant-ligatures:none;text-align:center;letter-spacing:0px;opacity:0.00818158;mix-blend-mode:overlay;fill:#ffffff;stroke-width:0.253;stroke-miterlimit:203.5;filter:url(#filter7)"
       aria-label="-" />
    <path
       d="M 99.304735,142.58091 H 95.68325 v 2.85874 h 3.299024 v 0.88677 H 95.68325 v 4.11758 h -1.016992 v -8.74985 h 4.638477 z"
       id="text54"
       style="font-size:12.7px;line-height:0.7;font-family:Monospace;-inkscape-font-specification:Monospace;font-variant-ligatures:none;text-align:center;letter-spacing:0px;opacity:0.00818158;mix-blend-mode:overlay;fill:#ffffff;stroke-width:0.253;stroke-miterlimit:203.5;filter:url(#filter7)"
       aria-label="F" />
    <path
       d="m 107.05,150.444 h -4.7625 v -8.74985 h 1.01699 v 7.86308 H 107.05 Z"
       id="text53"
       style="font-size:12.7px;line-height:0.7;font-family:Monospace;-inkscape-font-specification:Monospace;font-variant-ligatures:none;text-align:center;letter-spacing:0px;opacity:0.00818158;mix-blend-mode:overlay;fill:#ffffff;stroke-width:0.253;stroke-miterlimit:203.5;filter:url(#filter7)"
       aria-label="L" />
    <path
       d="m 112.11636,141.52672 q 1.46968,0 2.23862,1.16582 0.77515,1.15961 0.77515,3.37963 0,2.20762 -0.76895,3.37344 -0.76894,1.16582 -2.24482,1.16582 -1.46348,0 -2.23862,-1.15962 -0.76895,-1.16582 -0.76895,-3.37964 0,-2.21381 0.76895,-3.37963 0.76894,-1.16582 2.23862,-1.16582 z m 0,8.19174 q 1.93477,0 1.93477,-3.64629 0,-3.65249 -1.93477,-3.65249 -0.94258,0 -1.43867,0.94878 -0.48989,0.94258 -0.48989,2.70371 0,1.77974 0.48989,2.71612 0.48989,0.93017 1.43867,0.93017 z"
       id="text52"
       style="font-size:12.7px;line-height:0.7;font-family:Monospace;-inkscape-font-specification:Monospace;font-variant-ligatures:none;text-align:center;letter-spacing:0px;opacity:0.00818158;mix-blend-mode:overlay;fill:#ffffff;stroke-width:0.253;stroke-miterlimit:203.5;filter:url(#filter7)"
       aria-label="O" />
    <path
       d="m 119.7376,141.52672 q 1.46968,0 2.23862,1.16582 0.77515,1.15961 0.77515,3.37963 0,2.20762 -0.76895,3.37344 -0.76894,1.16582 -2.24482,1.16582 -1.46348,0 -2.23862,-1.15962 -0.76895,-1.16582 -0.76895,-3.37964 0,-2.21381 0.76895,-3.37963 0.76894,-1.16582 2.23862,-1.16582 z m 0,8.19174 q 1.93476,0 1.93476,-3.64629 0,-3.65249 -1.93476,-3.65249 -0.94258,0 -1.43867,0.94878 -0.4899,0.94258 -0.4899,2.70371 0,1.77974 0.4899,2.71612 0.48989,0.93017 1.43867,0.93017 z"
       id="text51"
       style="font-size:12.7px;line-height:0.7;font-family:Monospace;-inkscape-font-specification:Monospace;font-variant-ligatures:none;text-align:center;letter-spacing:0px;opacity:0.00818158;mix-blend-mode:overlay;fill:#ffffff;stroke-width:0.253;stroke-miterlimit:203.5;filter:url(#filter7)"
       aria-label="O" />
    <path
       d="m 130.8439,150.444 h -1.27124 l -2.56729,-3.97495 h -1.12861 v 3.97495 h -1.01699 v -8.74985 h 2.47426 q 1.24644,0 1.96577,0.60771 0.72554,0.60152 0.72554,1.68052 0,0.79995 -0.5271,1.42627 -0.5271,0.62012 -1.45107,0.84336 z m -4.96714,-4.86172 h 1.28364 q 0.80615,0 1.30845,-0.43408 0.50229,-0.44028 0.50229,-1.10381 0,-1.46348 -1.78593,-1.46348 h -1.30845 z"
       id="text50"
       style="font-size:12.7px;line-height:0.7;font-family:Monospace;-inkscape-font-specification:Monospace;font-variant-ligatures:none;text-align:center;letter-spacing:0px;opacity:0.00818158;mix-blend-mode:overlay;fill:#ffffff;stroke-width:0.253;stroke-miterlimit:203.5;filter:url(#filter7)"
       aria-label="R" />
    <path
       d="m 134.95528,149.02393 q 0.32866,0 0.5519,0.22324 0.22325,0.22325 0.22325,0.55191 0,0.33486 -0.22945,0.57671 -0.22324,0.23564 -0.5457,0.23564 -0.31626,0 -0.5395,-0.23564 -0.22324,-0.24185 -0.22324,-0.57671 0,-0.33486 0.21704,-0.55191 0.22324,-0.22324 0.5457,-0.22324 z"
       id="text49"
       style="font-size:12.7px;line-height:0.7;font-family:Monospace;-inkscape-font-specification:Monospace;font-variant-ligatures:none;text-align:center;letter-spacing:0px;opacity:0.00818158;mix-blend-mode:overlay;fill:#ffffff;stroke-width:0.253;stroke-miterlimit:203.5;filter:url(#filter7)"
       aria-label="." />
    <path
       d="m 144.96396,150.444 h -4.57026 v -8.74985 h 4.53305 v 0.88676 h -3.51606 v 2.70992 h 3.37964 v 0.88676 h -3.37964 v 3.37964 h 3.55327 z"
       id="text48"
       style="font-size:12.7px;line-height:0.7;font-family:Monospace;-inkscape-font-specification:Monospace;font-variant-ligatures:none;text-align:center;letter-spacing:0px;opacity:0.00818158;mix-blend-mode:overlay;fill:#ffffff;stroke-width:0.253;stroke-miterlimit:203.5;filter:url(#filter7)"
       aria-label="E" />
    <path
       d="m 153.68902,141.69415 -2.85254,8.74985 h -1.22163 l -2.85874,-8.74985 h 1.0666 l 2.39985,7.57163 2.41226,-7.57163 z"
       id="text47"
       style="font-size:12.7px;line-height:0.7;font-family:Monospace;-inkscape-font-specification:Monospace;font-variant-ligatures:none;text-align:center;letter-spacing:0px;opacity:0.00818158;mix-blend-mode:overlay;fill:#ffffff;stroke-width:0.253;stroke-miterlimit:203.5;filter:url(#filter7)"
       aria-label="V" />
    <path
       d="m 161.34125,150.444 h -1.0666 l -0.96738,-3.06338 h -2.87114 l -0.97979,3.06338 h -1.0542 l 2.85874,-8.74985 h 1.22163 z m -2.32544,-3.95015 -1.14721,-3.62148 -1.14102,3.62148 z"
       id="text46"
       style="font-size:12.7px;line-height:0.7;font-family:Monospace;-inkscape-font-specification:Monospace;font-variant-ligatures:none;text-align:center;letter-spacing:0px;opacity:0.00818158;mix-blend-mode:overlay;fill:#ffffff;stroke-width:0.253;stroke-miterlimit:203.5;filter:url(#filter7)"
       aria-label="A" />
    <path
       d="m 168.11914,150.444 h -1.12861 l -3.1378,-6.90811 v 6.90811 h -1.01699 v -8.74985 h 1.13482 l 3.15019,6.84609 v -6.84609 h 0.99839 z"
       id="text45"
       style="font-size:12.7px;line-height:0.7;font-family:Monospace;-inkscape-font-specification:Monospace;font-variant-ligatures:none;text-align:center;letter-spacing:0px;opacity:0.00818158;mix-blend-mode:overlay;fill:#ffffff;stroke-width:0.253;stroke-miterlimit:203.5;filter:url(#filter7)"
       aria-label="N" />
    <path
       d="m 175.61635,150.444 h -1.01699 v -4.34082 h -2.99517 v 4.34082 h -1.01699 v -8.74985 h 1.01699 v 3.51606 h 2.99517 v -3.51606 h 1.01699 z"
       id="text44"
       style="font-size:12.7px;line-height:0.7;font-family:Monospace;-inkscape-font-specification:Monospace;font-variant-ligatures:none;text-align:center;letter-spacing:0px;opacity:0.00818158;mix-blend-mode:overlay;fill:#ffffff;stroke-width:0.253;stroke-miterlimit:203.5;filter:url(#filter7)"
       aria-label="H" />
    <path
       d="m 180.70752,141.52672 q 1.46967,0 2.23862,1.16582 0.77515,1.15961 0.77515,3.37963 0,2.20762 -0.76895,3.37344 -0.76894,1.16582 -2.24482,1.16582 -1.46348,0 -2.23863,-1.15962 -0.76894,-1.16582 -0.76894,-3.37964 0,-2.21381 0.76894,-3.37963 0.76895,-1.16582 2.23863,-1.16582 z m 0,8.19174 q 1.93476,0 1.93476,-3.64629 0,-3.65249 -1.93476,-3.65249 -0.94258,0 -1.43868,0.94878 -0.48989,0.94258 -0.48989,2.70371 0,1.77974 0.48989,2.71612 0.4899,0.93017 1.43868,0.93017 z"
       id="text43"
       style="font-size:12.7px;line-height:0.7;font-family:Monospace;-inkscape-font-specification:Monospace;font-variant-ligatures:none;text-align:center;letter-spacing:0px;opacity:0.00818158;mix-blend-mode:overlay;fill:#ffffff;stroke-width:0.253;stroke-miterlimit:203.5;filter:url(#filter7)"
       aria-label="O" />
    <path
       d="m 190.88365,150.444 h -4.7625 v -8.74985 h 1.01699 v 7.86308 h 3.74551 z"
       id="text42"
       style="font-size:12.7px;line-height:0.7;font-family:Monospace;-inkscape-font-specification:Monospace;font-variant-ligatures:none;text-align:center;letter-spacing:0px;opacity:0.00818158;mix-blend-mode:overlay;fill:#ffffff;stroke-width:0.253;stroke-miterlimit:203.5;filter:url(#filter7)"
       aria-label="L" />
    <path
       d="m 198.50488,150.444 h -4.7625 v -8.74985 h 1.01699 v 7.86308 h 3.74551 z"
       id="text41"
       style="font-size:12.7px;line-height:0.7;font-family:Monospace;-inkscape-font-specification:Monospace;font-variant-ligatures:none;text-align:center;letter-spacing:0px;opacity:0.00818158;mix-blend-mode:overlay;fill:#ffffff;stroke-width:0.253;stroke-miterlimit:203.5;filter:url(#filter7)"
       aria-label="L" />
    <path
       d="m 207.0687,150.444 h -1.0666 l -0.96738,-3.06338 h -2.87115 l -0.97978,3.06338 h -1.0542 l 2.85874,-8.74985 h 1.22163 z m -2.32544,-3.95015 -1.14722,-3.62148 -1.14101,3.62148 z"
       id="text40"
       style="font-size:12.7px;line-height:0.7;font-family:Monospace;-inkscape-font-specification:Monospace;font-variant-ligatures:none;text-align:center;letter-spacing:0px;opacity:0.00818158;mix-blend-mode:overlay;fill:#ffffff;stroke-width:0.253;stroke-miterlimit:203.5;filter:url(#filter7)"
       aria-label="A" />
    <path
       d="m 213.84657,150.444 h -1.12861 l -3.13779,-6.90811 v 6.90811 h -1.017 v -8.74985 h 1.13482 l 3.15019,6.84609 v -6.84609 h 0.99839 z"
       id="text39"
       style="font-size:12.7px;line-height:0.7;font-family:Monospace;-inkscape-font-specification:Monospace;font-variant-ligatures:none;text-align:center;letter-spacing:0px;opacity:0.00818158;mix-blend-mode:overlay;fill:#ffffff;stroke-width:0.253;stroke-miterlimit:203.5;filter:url(#filter7)"
       aria-label="N" />
    <path
       d="m 216.31465,141.69415 h 1.72392 q 1.71773,0 2.75332,1.17202 1.0356,1.16582 1.0356,3.206 0,2.0836 -1.0542,3.23081 -1.048,1.14102 -2.69131,1.14102 h -1.76733 z m 1.01699,7.86308 h 0.71933 q 1.24644,0 1.97198,-0.92397 0.72553,-0.92398 0.72553,-2.56109 0,-1.6247 -0.73174,-2.55488 -0.72553,-0.93638 -1.96577,-0.93638 h -0.71933 z"
       id="text38"
       style="font-size:12.7px;line-height:0.7;font-family:Monospace;-inkscape-font-specification:Monospace;font-variant-ligatures:none;text-align:center;letter-spacing:0px;opacity:0.00818158;mix-blend-mode:overlay;fill:#ffffff;stroke-width:0.253;stroke-miterlimit:203.5;filter:url(#filter7)"
       aria-label="D" />
    <path
       d="m 228.79761,150.444 h -4.57026 v -8.74985 h 4.53305 v 0.88676 h -3.51606 v 2.70992 h 3.37964 v 0.88676 h -3.37964 v 3.37964 h 3.55327 z"
       id="text37"
       style="font-size:12.7px;line-height:0.7;font-family:Monospace;-inkscape-font-specification:Monospace;font-variant-ligatures:none;text-align:center;letter-spacing:0px;opacity:0.00818158;mix-blend-mode:overlay;fill:#ffffff;stroke-width:0.253;stroke-miterlimit:203.5;filter:url(#filter7)"
       aria-label="E" />
    <path
       d="m 237.54125,150.444 h -1.27124 l -2.56728,-3.97495 h -1.12862 v 3.97495 h -1.01699 v -8.74985 h 2.47427 q 1.24644,0 1.96577,0.60771 0.72554,0.60152 0.72554,1.68052 0,0.79995 -0.5271,1.42627 -0.5271,0.62012 -1.45107,0.84336 z m -4.96714,-4.86172 h 1.28365 q 0.80615,0 1.30844,-0.43408 0.5023,-0.44028 0.5023,-1.10381 0,-1.46348 -1.78594,-1.46348 h -1.30845 z"
       id="text36"
       style="font-size:12.7px;line-height:0.7;font-family:Monospace;-inkscape-font-specification:Monospace;font-variant-ligatures:none;text-align:center;letter-spacing:0px;opacity:0.00818158;mix-blend-mode:overlay;fill:#ffffff;stroke-width:0.253;stroke-miterlimit:203.5;filter:url(#filter7)"
       aria-label="R" />
    <path
       d="m 241.65264,149.02393 q 0.32866,0 0.5519,0.22324 0.22324,0.22325 0.22324,0.55191 0,0.33486 -0.22944,0.57671 -0.22324,0.23564 -0.5457,0.23564 -0.31626,0 -0.53951,-0.23564 -0.22324,-0.24185 -0.22324,-0.57671 0,-0.33486 0.21704,-0.55191 0.22325,-0.22324 0.54571,-0.22324 z"
       id="text35"
       style="font-size:12.7px;line-height:0.7;font-family:Monospace;-inkscape-font-specification:Monospace;font-variant-ligatures:none;text-align:center;letter-spacing:0px;opacity:0.00818158;mix-blend-mode:overlay;fill:#ffffff;stroke-width:0.253;stroke-miterlimit:203.5;filter:url(#filter7)"
       aria-label="." />
    <path
       d="m 249.29867,141.52672 q 1.46968,0 2.23863,1.16582 0.77514,1.15961 0.77514,3.37963 0,2.20762 -0.76894,3.37344 -0.76895,1.16582 -2.24483,1.16582 -1.46347,0 -2.23862,-1.15962 -0.76895,-1.16582 -0.76895,-3.37964 0,-2.21381 0.76895,-3.37963 0.76894,-1.16582 2.23862,-1.16582 z m 0,8.19174 q 1.93477,0 1.93477,-3.64629 0,-3.65249 -1.93477,-3.65249 -0.94258,0 -1.43867,0.94878 -0.48989,0.94258 -0.48989,2.70371 0,1.77974 0.48989,2.71612 0.48989,0.93017 1.43867,0.93017 z"
       id="text34"
       style="font-size:12.7px;line-height:0.7;font-family:Monospace;-inkscape-font-specification:Monospace;font-variant-ligatures:none;text-align:center;letter-spacing:0px;opacity:0.00818158;mix-blend-mode:overlay;fill:#ffffff;stroke-width:0.253;stroke-miterlimit:203.5;filter:url(#filter7)"
       aria-label="O" />
    <path
       d="m 260.40498,150.444 h -1.27124 l -2.56729,-3.97495 h -1.12861 v 3.97495 h -1.01699 v -8.74985 h 2.47426 q 1.24644,0 1.96578,0.60771 0.72553,0.60152 0.72553,1.68052 0,0.79995 -0.5271,1.42627 -0.5271,0.62012 -1.45107,0.84336 z m -4.96714,-4.86172 h 1.28364 q 0.80615,0 1.30845,-0.43408 0.50229,-0.44028 0.50229,-1.10381 0,-1.46348 -1.78593,-1.46348 h -1.30845 z"
       id="text33"
       style="font-size:12.7px;line-height:0.7;font-family:Monospace;-inkscape-font-specification:Monospace;font-variant-ligatures:none;text-align:center;letter-spacing:0px;opacity:0.00818158;mix-blend-mode:overlay;fill:#ffffff;stroke-width:0.253;stroke-miterlimit:203.5;filter:url(#filter7)"
       aria-label="R" />
    <path
       d="m 267.37512,149.82388 q -1.07281,0.78755 -2.37505,0.78755 -1.70533,0 -2.58589,-1.15342 -0.88057,-1.15962 -0.88057,-3.38584 0,-2.1518 0.84956,-3.34863 0.85576,-1.19682 2.6169,-1.19682 0.63252,0 1.25263,0.16123 0.62012,0.16123 0.99839,0.42788 l -0.33486,0.79995 q -0.87437,-0.4961 -1.91616,-0.4961 -1.20303,0 -1.79834,0.88057 -0.58911,0.88057 -0.58911,2.77192 0,3.64629 2.38745,3.64629 0.89917,0 1.35805,-0.37827 v -2.15801 h -1.57509 v -0.88056 h 2.59209 z"
       id="text32"
       style="font-size:12.7px;line-height:0.7;font-family:Monospace;-inkscape-font-specification:Monospace;font-variant-ligatures:none;text-align:center;letter-spacing:0px;opacity:0.00818158;mix-blend-mode:overlay;fill:#ffffff;stroke-width:0.253;stroke-miterlimit:203.5;filter:url(#filter7)"
       aria-label="G" />
  </g>
</svg>
